<?xml version="1.0" encoding="utf-8"?>
<!-- Generator: Adobe Illustrator 23.0.0, SVG Export Plug-In . SVG Version: 6.00 Build 0)  -->
<svg version="1.1" id="레이어_1" xmlns="http://www.w3.org/2000/svg" xmlns:xlink="http://www.w3.org/1999/xlink" x="0px"
	 y="0px" viewBox="0 0 512 512" style="enable-background:new 0 0 512 512;" xml:space="preserve">
<style type="text/css">
	.st0{fill:#798795;}
	.st1{fill:#F1CD7E;}
	.st2{fill:#B49A6B;}
	.st3{fill:#CBAB6B;}
	.st4{fill:#489BFF;}
	.st5{fill:#1C7BFF;}
	.st6{fill:#A4E1F8;}
	.st7{fill:#5FA8EC;}
	.st8{fill:#5FA7EC;}
	.st9{fill:#5FCCA3;}
	.st10{fill:#EEF6F8;}
	.st11{fill:#EDF5F7;}
</style>
<path class="st0" d="M50.2,341c0-1.5-0.1-2.9-0.1-4.4c0-89.1,0-178.2,0-267.3c0-12.1,3.9-16,15.9-16c127.9,0,255.7,0,383.6,0
	c11.7,0,15.8,4,15.8,15.6c0,90.7,0,181.5-0.1,272.2c-10.7,0-21.5,0-32.2-0.1c0-84.1,0-168.1,0-252.2c0-3.7-0.2-5.8-5-5.8
	c-105.5,0.2-211,0.1-316.6,0.1c-1.3-1.4-3-0.9-4.6-0.9c-6.3-0.1-12.6,0.2-18.9-0.1c-4.6-0.3-5.7,1.5-5.7,5.9
	c0.1,84.3,0.1,168.5,0.1,252.8C71.7,341,60.9,341,50.2,341z"/>
<path class="st1" d="M433,341.1c10.7,0,21.5,0,32.2,0.1c6.9,1.5,13.8,0.6,20.7,0.6c3.4,0,4.4,1.1,4.3,4.4c-0.2,8.4-0.2,16.8,0,25.2
	c0.1,3.6-0.9,4.7-4.6,4.7c-12.7-0.2-25.5-0.1-38.2-0.1c-1.9,0-3.9-0.4-5.6,0.9c-14.5,0-29,0-43.6,0c-1.5-1.4-3.4-0.8-5.1-0.8
	c-90.3,0-180.7,0-271,0c-1.7,0-3.6-0.6-5.1,0.8c-14.5,0-29,0-43.6,0c-6.4-2-12.9-0.3-19.3-0.9c0-10,0.1-19.9,0-29.9
	c-0.1-3.2,1-4.2,4.2-4.1c8.3,0.1,16.7,0,25-0.1c9.3-0.1,18.7-0.2,28-0.3c1.3,0.1,2.6,0.3,3.8,0.3c53.2,0,106.4,0,159.6,0
	c1.4,0,2.9-0.2,4.3-0.4c9.4,0.6,18.7,0.4,28.1,0.1l0.4,0.2l0.4-0.1c25.5,0,51,0,76.5,0l0.5,0.1l0.4-0.2c8.4,0.2,16.7,0.6,25.1-0.2
	C418.1,342,425.5,342.4,433,341.1z"/>
<path class="st2" d="M73.5,376.8c14.5,0,29,0,43.6,0c0,25.9,0,51.9,0.1,77.8c0,2.7-0.7,3.6-3.5,3.6c-12.2-0.1-24.5-0.2-36.7,0
	c-3.3,0-3.6-1.5-3.6-4.1C73.5,428.4,73.5,402.6,73.5,376.8z"/>
<path class="st2" d="M398.3,376.8c14.5,0,29,0,43.6,0c0,25.8,0,51.6,0.1,77.3c0,3.2-0.9,4.1-4.1,4.1c-11.9-0.2-23.8-0.2-35.8,0
	c-3.2,0-4-1-4-4.1C398.2,428.4,398.2,402.6,398.3,376.8z"/>
<path class="st3" d="M83.4,341.8c-8.3,0.1-16.7,0.2-25,0.1c-3.1,0-4.2,0.9-4.2,4.1c0.2,10,0.1,19.9,0,29.9c-8.5,0.1-17,0.1-25.6,0.2
	c-2.3,0-3.6-0.4-3.5-3.1c0.1-9.3,0.1-18.7,0-28c-0.1-3.1,1.6-3.2,3.9-3.3c7-0.3,14.1,0.9,21.1-0.6c10.7,0,21.5,0,32.2,0
	C82.7,341.3,83,341.5,83.4,341.8z"/>
<path class="st4" d="M433,341.1c-7.5,1.3-14.9,0.9-22.4,0.2c0.1-11.6,0.1-23.1,0.3-34.7c0.1-3.4-1.5-4.5-4.7-4.4
	c-7.2,0.2-14.5,0.1-21.7,0.2c-25.5,0-50.9,0-76.4-0.1c-8.2,0-16.4,0-24.6-0.1c-3.9-0.1-5.5,1.7-5.4,5.6c0.1,9.7,0.1,19.3,0,29
	c0,1.7,0.5,3.2,1.1,4.6c-1.4,0.1-2.9,0.4-4.3,0.4c-53.2,0-106.4,0-159.6,0c-1.3,0-2.6-0.2-3.8-0.3c0-2.1,0.1-4.2,0.1-6.3
	c0-70.1,0-140.2,0-210.3c1.1,0,2.2,0,3.3-0.1c3.5-0.4,6.2-1.7,6.4-5.7c0.2-4.3-2.6-5.8-6.3-6.3c-1.1-0.1-2.2-0.1-3.3-0.1
	c0-9.8-0.1-19.6-0.1-29.4c105.5,0,211,0,316.6-0.1c4.8,0,5,2,5,5.8C433,173,433,257,433,341.1z M188.1,124.8c14,0,28,0,42.1,0
	c1.4,0,2.9,0.1,4.3-0.2c3.1-0.7,5.5-2.5,5.4-5.8c-0.1-3.2-2.2-5.3-5.4-5.9c-1.3-0.2-2.6-0.2-3.9-0.2c-28.5,0-57.1,0-85.6,0
	c-1.1,0-2.3-0.1-3.4,0.1c-3.2,0.5-5.5,2.4-5.6,5.7c-0.1,3.6,2.3,5.5,5.6,6.2c1.3,0.2,2.6,0.1,3.9,0.1
	C159.8,124.8,174,124.8,188.1,124.8z"/>
<path class="st5" d="M111.4,83.3c0,9.8,0.1,19.6,0.1,29.4c-1.8,0.4-3.8,0.2-5.4,1.5c-1.8,1.6-2.8,3.5-2.1,5.9
	c1.1,3.6,4.1,4.5,7.4,4.8c0,70.1,0,140.2,0,210.3c0,2.1,0,4.2-0.1,6.3c-9.3,0.1-18.7,0.2-28,0.3c-0.3-0.3-0.7-0.5-1-0.8
	c0-84.3,0-168.5-0.1-252.8c0-4.4,1.1-6.1,5.7-5.9c6.3,0.3,12.6,0.1,18.9,0.1C108.4,82.4,110.1,81.9,111.4,83.3z"/>
<path class="st6" d="M308.1,302.3c25.5,0,50.9,0,76.4,0.1c0.1,12.9,0.1,25.7,0.2,38.6c0,0.2-0.1,0.4-0.1,0.7c-25.5,0-51,0-76.5,0
	c0-0.2-0.1-0.4-0.1-0.6C307.9,328.1,308,315.2,308.1,302.3z"/>
<path class="st7" d="M308.1,302.3c-0.1,12.9-0.1,25.8-0.2,38.7c-0.3,0.1-0.5,0.3-0.7,0.5c-9.4,0.3-18.7,0.5-28.1-0.1
	c-0.6-1.5-1.1-3-1.1-4.6c0.1-9.7,0.1-19.3,0-29c0-3.8,1.5-5.6,5.4-5.6C291.6,302.3,299.9,302.3,308.1,302.3z"/>
<path class="st8" d="M384.6,341c-0.1-12.9-0.1-25.7-0.2-38.6c7.2,0,14.5,0,21.7-0.2c3.2-0.1,4.8,1,4.7,4.4
	c-0.2,11.6-0.2,23.1-0.3,34.7c-8.4,0.8-16.7,0.4-25.1,0.2C385.2,341.4,384.9,341.2,384.6,341z"/>
<path class="st9" d="M307.2,341.5c0.2-0.2,0.4-0.4,0.7-0.5c0.1,0.2,0.1,0.4,0.1,0.6l-0.4,0.1L307.2,341.5z"/>
<path class="st9" d="M384.6,341c0.3,0.2,0.5,0.4,0.8,0.6l-0.4,0.2l-0.5-0.1C384.6,341.4,384.6,341.2,384.6,341z"/>
<path class="st10" d="M188.1,124.8c-14.2,0-28.4,0-42.6,0c-1.3,0-2.6,0.1-3.9-0.1c-3.4-0.6-5.8-2.6-5.6-6.2c0.1-3.3,2.4-5.2,5.6-5.7
	c1.1-0.2,2.3-0.1,3.4-0.1c28.5,0,57.1,0,85.6,0c1.3,0,2.6,0,3.9,0.2c3.3,0.5,5.3,2.6,5.4,5.9c0.1,3.4-2.3,5.2-5.4,5.8
	c-1.4,0.3-2.9,0.2-4.3,0.2C216.2,124.8,202.2,124.8,188.1,124.8z"/>
<path class="st11" d="M111.5,124.9c-3.3-0.3-6.3-1.2-7.4-4.8c-0.7-2.4,0.3-4.3,2.1-5.9c1.5-1.3,3.6-1.1,5.4-1.5c1.1,0,2.2,0,3.3,0.1
	c3.7,0.5,6.5,1.9,6.3,6.3c-0.2,4-2.9,5.4-6.4,5.7C113.7,124.9,112.6,124.8,111.5,124.9z"/>
</svg>
