<?xml version="1.0" encoding="utf-8"?>
<!-- Generator: Adobe Illustrator 23.0.0, SVG Export Plug-In . SVG Version: 6.00 Build 0)  -->
<svg version="1.1" id="레이어_1" xmlns="http://www.w3.org/2000/svg" xmlns:xlink="http://www.w3.org/1999/xlink" x="0px"
	 y="0px" viewBox="0 0 512 512" style="enable-background:new 0 0 512 512;" xml:space="preserve">
<style type="text/css">
	.st0{fill:#FFFFFF;}
</style>
<path class="st0" d="M72,1c0.3,0,0.7,0,1,0c2.6,1.3,4.5,3.3,6.5,5.3c57.5,57.5,115,115,172.5,172.5c5,5,5,5,10,0
	c57.5-57.5,115-115,172.5-172.5c2-2,3.9-4.1,6.5-5.3c0.3,0,0.7,0,1,0c2.1,1.1,3.8,2.6,5.5,4.3c20.4,20.4,40.8,40.9,61.3,61.3
	c1.7,1.7,3.2,3.4,4.3,5.5c0,0.3,0,0.7,0,1c-1.3,2.6-3.3,4.5-5.3,6.5c-57.5,57.5-115,115-172.5,172.5c-5,5-5,5,0,10
	c57.5,57.5,115,115,172.5,172.5c2,2,4.1,3.9,5.3,6.5c0,0.3,0,0.7,0,1c-1.1,2.1-2.6,3.8-4.3,5.5c-20.4,20.4-40.9,40.8-61.3,61.3
	c-1.7,1.7-3.4,3.2-5.5,4.3c-0.3,0-0.7,0-1,0c-2.6-1.3-4.5-3.3-6.5-5.3c-57.5-57.5-115-115-172.5-172.5c-5-5-5-5-10,0
	c-57.5,57.5-115,115-172.5,172.5c-2,2-3.9,4.1-6.5,5.3c-0.3,0-0.7,0-1,0c-2.1-1.1-3.8-2.6-5.5-4.3c-20.4-20.4-40.8-40.9-61.3-61.3
	c-1.7-1.7-3.2-3.4-4.3-5.5c0-0.3,0-0.7,0-1c1.3-2.6,3.3-4.5,5.3-6.5c57.5-57.5,115-115,172.5-172.5c5-5,5-5,0-10
	C121.3,194.5,63.8,137,6.3,79.5c-2-2-4.1-3.9-5.3-6.5c0-0.3,0-0.7,0-1c1.1-2.1,2.6-3.8,4.3-5.5C25.7,46.1,46.1,25.7,66.5,5.3
	C68.2,3.6,69.9,2.1,72,1z"/>
<g>
</g>
<g>
</g>
<g>
</g>
<g>
</g>
<g>
</g>
<g>
</g>
<g>
</g>
<g>
</g>
<g>
</g>
<g>
</g>
<g>
</g>
<g>
</g>
<g>
</g>
<g>
</g>
<g>
</g>
</svg>
