<?xml version="1.0" encoding="utf-8"?>
<!-- Generator: Adobe Illustrator 23.0.0, SVG Export Plug-In . SVG Version: 6.00 Build 0)  -->
<svg version="1.1" id="레이어_1" xmlns="http://www.w3.org/2000/svg" xmlns:xlink="http://www.w3.org/1999/xlink" x="0px"
	 y="0px" viewBox="0 0 512 512" style="enable-background:new 0 0 512 512;" xml:space="preserve">
<style type="text/css">
	.st0{stroke:#000000;stroke-width:10;stroke-miterlimit:10;}
	.st1{fill:#E8E8E8;}
	.st2{fill:#E9E9E9;}
	.st3{fill:#EDEDED;}
</style>
<path class="st0" d="M506,16.7c-2.6,2.8-5.1,5.8-7.9,8.5c-75.7,75.7-151.4,151.5-227.2,227.1c-3.1,3.1-2.8,4.5,0.1,7.4
	c75.7,75.5,151.3,151.1,226.8,226.7c2.8,2.8,5.4,5.9,8.1,8.8c0,1.3,0,2.6,0,3.9c-0.5,4.1-2.7,6.4-6.8,6.8c-1,0-2,0-2.9,0
	c-2.9-1.5-5.2-3.7-7.5-6c-76.4-76.4-152.8-152.7-229-229.2c-3.2-3.2-4.5-2.7-7.4,0.1C175.9,347.5,99.4,424,22.9,500.5
	c-2.2,2.2-4.4,4.1-7.1,5.5c-1.6,0-3.3,0-4.9,0c-2.9-0.9-4.2-3.1-4.9-5.9c0-1.6,0-3.3,0-4.9c2.6-2.8,5.1-5.7,7.9-8.5
	c75.7-75.7,151.3-151.4,227.1-227c3.3-3.3,2.8-4.8-0.2-7.8C164.5,175.8,88.3,99.5,12,23.3c-2.3-2.3-4.4-4.7-6-7.5c0-1,0-2,0-2.9
	C6.5,8.7,8.7,6.5,12.8,6c1.3,0,2.6,0,3.9,0c2.9,2.7,6,5.3,8.8,8.1C101.2,89.7,176.8,165.3,252.3,241c2.9,2.9,4.3,3.3,7.4,0.1
	c75.7-75.9,151.6-151.8,227.4-227.6c2.6-2.6,5.4-5,8.1-7.5c1.6,0,3.3,0,4.9,0c3.3,0.6,5.2,2.6,5.9,5.9C506,13.5,506,15.1,506,16.7z"
	/>
<path class="st1" d="M8,1C4.6,2.3,2.5,4.8,1,8C1,1,1,1,8,1z"/>
<path class="st2" d="M506,513c3.2-1.5,5.7-3.6,7-7C513,513,513,513,506,513z"/>
<path class="st1" d="M513,7c-1.5-2.5-3.5-4.5-6-6C512.1-0.1,514.1,1.9,513,7z"/>
<path class="st3" d="M1,507c1.7,2,3.3,4,5,6C-0.2,514.8,1.1,510.3,1,507z"/>
<g>
</g>
<g>
</g>
<g>
</g>
<g>
</g>
<g>
</g>
<g>
</g>
<g>
</g>
<g>
</g>
<g>
</g>
<g>
</g>
<g>
</g>
<g>
</g>
<g>
</g>
<g>
</g>
<g>
</g>
</svg>
