<?xml version="1.0" encoding="utf-8"?>
<!-- Generator: Adobe Illustrator 23.0.0, SVG Export Plug-In . SVG Version: 6.00 Build 0)  -->
<svg version="1.1" id="레이어_1" xmlns="http://www.w3.org/2000/svg" xmlns:xlink="http://www.w3.org/1999/xlink" x="0px"
	 y="0px" viewBox="0 0 512 512" style="enable-background:new 0 0 512 512;" xml:space="preserve">
<style type="text/css">
	.st0{fill:#489BFF;}
	.st1{fill:#1C7BFF;}
	.st2{fill:#FEFEFE;}
	.st3{fill:#6CCDA1;}
	.st4{fill:#2CB07F;}
	.st5{fill:#70CEA3;}
	.st6{fill:#94DBBA;}
	.st7{fill:#84D2B3;}
</style>
<path class="st0" d="M241,513c-1.7,0-3.3,0-5,0c-7-1.1-14.2-1-21.2-1.7c-16.2-1.5-31.6-6.2-46.8-11.8c-29.6-11-56.6-26.5-80.3-47.5
	c-20.3-17.9-38-38.1-51.8-61.6c-15.3-26-26.7-53.6-32.2-83.4c-1.6-8.5-1.5-17.2-2.1-25.8C1.4,280.2,1.9,279,1,278c0-1.7,0-3.3,0-5
	c0.7-0.7,0.4-1.6,0.5-2.4c-0.2-1.2,0.4-2.5-0.5-3.6c0-6.7,0-13.3,0-20c0.9-1.1,0.3-2.4,0.5-3.6c-0.1-0.8,0.2-1.7-0.5-2.4
	c0-1.7,0-3.3,0-5c1.1-7,1-14.2,1.7-21.2c1.5-16.2,6.2-31.6,11.8-46.8c11-29.6,26.5-56.7,47.5-80.3C83,63.8,107.3,43.8,135.7,29
	c22.6-11.8,46.1-20.8,71.2-25.3c8.7-1.6,17.5-1.5,26.3-2.1c1.3-0.1,2.7,0.4,3.9-0.5c1.3,0,2.7,0,4,0c0.7,0.7,1.6,0.4,2.4,0.5
	c1.2-0.2,2.5,0.4,3.6-0.5c6.7,0,13.3,0,20,0c1.1,0.9,2.4,0.3,3.6,0.5c0.8-0.1,1.7,0.2,2.4-0.5c1.3,0,2.7,0,4,0
	c7.4,1,14.8,1,22.2,1.7c16.2,1.5,31.6,6.2,46.8,11.8c29.6,11,56.7,26.5,80.3,47.5c24,21.2,44.1,45.6,58.9,74.2
	c11.6,22.5,20.6,45.8,25.1,70.7c1.6,8.7,1.5,17.5,2.1,26.3c0.1,1.3-0.4,2.7,0.5,3.9c0,1.7,0,3.3,0,5c-1.1,1.8-0.2,3.8-0.6,5.7
	c-2.9,2.4-4.9,0.2-6.8-1.5c-4.4-4.1-8.7-8.2-13.1-12.2c-14.8-13.8-29.7-27.5-44.6-41.2c-8.2-7.5-15.9-15.4-24.4-22.6
	c-8.8-13.3-20.2-24.3-32.4-34.3c-10.5-8.7-24.4-8-35,0.5c-3.5,2.8-6.8,5.9-9.9,9.1c-39.2,39.2-78.4,78.5-117.7,117.7
	c-0.9,0.9-1.9,1.9-2.8,2.8c-5.9,5.7-7.6,5.7-13.6-0.2c-17-16.9-34.5-33.4-50.7-51c-10.3-11.2-29-13.3-41.2-1.9
	c-8.6,8.1-17.5,16-24.7,25.4c-9.1,11.8-8,26.1,2.2,36.8c32.3,33.8,65.8,66.6,98.7,99.8c3.7,3.7,8.1,6.3,11.7,9.9
	c0.5,1.2,0.9,2.5,1.9,3.5c25.6,23.7,49.6,49.1,74.4,73.6c12.1,11.9,24,23.9,35.9,36c2.1,2.1,4.7,4.1,3,7.7
	c-6.1,4.2-13.3,4.6-20.3,5.5c-8.7,1.2-17.4,1-26.1,2.1c-1.3,0-2.7,0-4,0c-0.7-0.7-1.6-0.4-2.4-0.5c-1.2,0.2-2.5-0.4-3.6,0.5
	c-6.7,0-13.3,0-20,0c-1.1-0.9-2.4-0.3-3.6-0.5C242.6,512.6,241.7,512.3,241,513z"/>
<path class="st1" d="M425.1,169c12.6,11.5,25.3,22.9,37.9,34.5c15.1,13.9,30.1,28,45.2,42c1.1,1,2.4,1.7,3.7,2.5
	c0.7-0.1,0.8,0.6,1.1,0.9c0,4.7,0,9.3,0,14c-0.8,2-0.8,4,0,6c0,1.3,0,2.7,0,4c-0.6,0.7-0.6,1.3,0,2c0,1.3,0,2.7,0,4
	c-1.6,9.5-0.9,19.2-2.7,28.6c-5.3,27.9-15.3,54-29.6,78.6c-10.3,17.6-22.5,33.7-36.5,48.5c-24.6,26.1-53.4,45.8-86.2,60
	c-8.7,3.8-17.7,6.9-26.7,9.7c-2.7,0.8-5.7,2.6-8.3-0.4c-1.4-1.6-2.8-3.3-4.3-4.8c-36.2-36.2-72.4-72.4-108.5-108.6
	c-1.3-1.3-3.6-2.1-3.1-4.6c1.7-2.2,4-1.3,6-0.9c10.3,2,19-0.9,26.4-8.3c58.9-58.9,117.8-117.8,176.7-176.8
	c6.9-6.9,9.9-15.2,7.9-25.1C423.7,173,422.7,170.6,425.1,169z"/>
<path class="st2" d="M1,278c2.2,5.1,1.9,10.6,2.7,15.9c15.5,106.4,96.7,192.7,201.7,213.9c9.1,1.8,18.4,2.8,27.6,4.2
	c1.1,0.2,2.4-0.4,3,1.1c-77,0-154,0-231,0.1c-3.4,0-4.1-0.7-4.1-4.1C1,432,1,355,1,278z"/>
<path class="st3" d="M513,249c-0.4-0.3-0.8-0.6-1.1-0.9c0.5-2-0.6-4.3,1.1-6.1C513,244.3,513,246.7,513,249z"/>
<path class="st4" d="M513,269c-1.5-2-1.3-4,0-6C513,265,513,267,513,269z"/>
<path class="st5" d="M247,1c-1.2,1.2-2.6,1-4.1,0.9c-0.7-0.3-0.7-0.6,0.1-0.9C244.3,1,245.7,1,247,1z"/>
<path class="st5" d="M271.1,1.9C269.6,2,268.2,2.2,267,1c1.3,0,2.7,0,4,0C271.7,1.2,271.7,1.5,271.1,1.9z"/>
<path class="st5" d="M1.9,242.9c0.1,1.4,0.3,2.9-0.9,4.1c0-1.3,0-2.7,0-4C1.2,242.3,1.5,242.3,1.9,242.9z"/>
<path class="st5" d="M1,267c1.2,1.2,1,2.6,0.9,4.1c-0.3,0.7-0.6,0.7-0.9-0.1C1,269.7,1,268.3,1,267z"/>
<path class="st5" d="M242.9,512.1c1.4-0.1,2.9-0.3,4.1,0.9c-1.3,0-2.7,0-4,0C242.3,512.8,242.3,512.5,242.9,512.1z"/>
<path class="st5" d="M267,513c1.2-1.2,2.6-1,4.1-0.9c0.7,0.3,0.7,0.6-0.1,0.9C269.7,513,268.3,513,267,513z"/>
<path class="st6" d="M243,1c0,0.3,0,0.6-0.1,0.9c-0.8,0-1.6,0-1.9-0.9C241.7,1,242.3,1,243,1z"/>
<path class="st6" d="M271.1,1.9c0-0.3-0.1-0.6-0.1-0.9c0.7,0,1.3,0,2,0C272.6,1.9,271.9,1.9,271.1,1.9z"/>
<path class="st6" d="M1.9,242.9c-0.3,0-0.6,0-0.9,0.1c0-0.7,0-1.3,0-2C1.9,241.4,1.9,242.1,1.9,242.9z"/>
<path class="st6" d="M1,271c0.3,0,0.6,0.1,0.9,0.1c0,0.8,0,1.6-0.9,1.9C1,272.3,1,271.7,1,271z"/>
<path class="st7" d="M513,275c-1.3-0.7-1-1.3,0-2C513,273.7,513,274.3,513,275z"/>
<path class="st6" d="M242.9,512.1c0,0.3,0.1,0.6,0.1,0.9c-0.7,0-1.3,0-2,0C241.4,512.1,242.1,512.1,242.9,512.1z"/>
<path class="st6" d="M271,513c0-0.3,0-0.6,0.1-0.9c0.8,0,1.6,0,1.9,0.9C272.3,513,271.7,513,271,513z"/>
<path class="st2" d="M425.1,169c4.5,14.5,0,25.9-10.6,36.4c-48,47.3-95.7,95-143.4,142.6c-9.3,9.3-18.6,18.6-27.5,28.2
	c-10.3,11.1-22.3,14.5-36.6,9.7c-5.8-3.1-10.4-7.6-15-12.3c-31.5-31.9-63.1-63.6-94.7-95.5c-11.1-11.3-13.5-25.1-6.3-37.8
	c1.5-2.7,3.6-5.2,5.8-7.4c6.7-6.9,13.6-13.8,20.5-20.5c13.8-13.5,31.6-13.4,45.2,0.2c17.3,17.3,34.6,34.7,51.7,52.2
	c3.5,3.6,5.3,4,9.1,0.2c42.4-42.5,84.9-84.8,127.4-127.1c11.3-11.3,25.1-13.8,37.7-6.9c1.6,0.9,3.2,1.9,4.5,3.1
	c9.3,8.6,18.3,17.5,26.8,26.9C422,163.4,423.4,166.4,425.1,169z"/>
<g>
</g>
<g>
</g>
<g>
</g>
<g>
</g>
<g>
</g>
<g>
</g>
<g>
</g>
<g>
</g>
<g>
</g>
<g>
</g>
<g>
</g>
<g>
</g>
<g>
</g>
<g>
</g>
<g>
</g>
</svg>
