<?xml version="1.0" encoding="utf-8"?>
<!-- Generator: Adobe Illustrator 23.0.0, SVG Export Plug-In . SVG Version: 6.00 Build 0)  -->
<svg version="1.1" id="레이어_1" xmlns="http://www.w3.org/2000/svg" xmlns:xlink="http://www.w3.org/1999/xlink" x="0px"
	 y="0px" viewBox="0 0 512 512" style="enable-background:new 0 0 512 512;" xml:space="preserve">
<style type="text/css">
	.st0{fill:#FFFFFF;}
	.st1{fill:#555555;}
</style>
<path class="st0" d="M374,512c-78,0-156,0-234,0c-2-1.1-4.1-0.3-6.1-0.5c-15.5-0.6-27.1-8.5-36.5-20c-9.7-11.9-13-26-13-41.1
	c0-41.5,0-83,0-124.5c0-67.5,0-135,0-202.5c0-10.7,0.3-11,10.9-11c107.8,0,215.6,0,323.4,0c10.6,0,10.9,0.3,10.9,11
	c0,108.6,0,217.3,0,325.9c0,13.9-2.4,27.3-10.7,38.9c-9.5,13.3-21.8,22.3-38.8,23.3C378.1,511.7,376,510.9,374,512z"/>
<path class="st0" d="M329,0c6,8,14.1,13.9,20.5,21.5c4.6,5.5,9.8,7.1,16.8,7c28.2-0.4,56.3,0,84.5-0.3c4.6,0,5.4,1.4,5.3,5.6
	c-0.3,15.7-0.2,31.3,0,47c0,3.2-0.3,4.6-4.2,4.6c-130-0.1-260-0.1-390,0c-3.1,0-4.2-0.6-4.2-4c0.2-16.2,0.2-32.3,0-48.5
	c-0.1-4,1.4-4.5,4.8-4.5c30,0.1,60,0,90,0.1c3.4,0,5.9-0.9,8.3-3.4c7-7.3,14.3-14.4,21.5-21.6c1-1,2.6-1.6,2.6-3.4
	C233,0,281,0,329,0z"/>
<path class="st1" d="M135,512c0-0.3-0.1-0.6-0.2-0.8c1.8-0.3,3.6-0.5,5.2,0.8C138.3,512,136.7,512,135,512z"/>
<path class="st1" d="M379.2,511.2c-0.1,0.3-0.1,0.6-0.2,0.8c-1.7,0-3.3,0-5,0C375.6,510.7,377.4,510.8,379.2,511.2z"/>
<g>
</g>
<g>
</g>
<g>
</g>
<g>
</g>
<g>
</g>
<g>
</g>
<g>
</g>
<g>
</g>
<g>
</g>
<g>
</g>
<g>
</g>
<g>
</g>
<g>
</g>
<g>
</g>
<g>
</g>
</svg>
