<?xml version="1.0" encoding="utf-8"?>
<!-- Generator: Adobe Illustrator 23.0.0, SVG Export Plug-In . SVG Version: 6.00 Build 0)  -->
<svg version="1.1" id="레이어_1" xmlns="http://www.w3.org/2000/svg" xmlns:xlink="http://www.w3.org/1999/xlink" x="0px"
	 y="0px" viewBox="0 0 512 512" style="enable-background:new 0 0 512 512;" xml:space="preserve">
<style type="text/css">
	.st0{fill:#FFFFFF;}
</style>
<path class="st0" d="M445.7,97c-62.8,0-125.7,0-188.5,0c-63.2,0-126.3,0-189.5,0C46.1,97,33,110.2,33,131.9c0,83.3,0,166.6,0,250
	c0,22,13.1,35.1,35,35.2c126,0,252,0,377.9,0c22,0,35-13.1,35-35.1c0-83.2,0-166.3,0-249.5C481,110,468.1,97,445.7,97z M443.6,385.1
	c-124.5-0.2-249-0.2-373.4,0c-4.5,0-5.3-1.2-5.3-5.5C65,314,65,248.4,65,182.7c0-1.6,0-3.2,0-5.7c2.1,1.6,3.5,2.6,4.9,3.7
	c55.1,41.4,110.3,82.7,165.4,124.1c14.8,11.1,28.4,11.1,43.4-0.1c55.6-41.6,111.1-83.3,166.6-124.9c0.9-0.7,1.8-1.4,3.6-2.7
	c0,2.6,0,4.2,0,5.9c0,65.5,0,131,0.1,196.5C449.1,383.6,448.5,385.1,443.6,385.1z M446.2,139.1c-49.8,37.1-99.4,74.4-149,111.6
	c-12.2,9.2-24.6,18.2-36.7,27.6c-2.5,2-4.1,2.2-6.8,0.1C191.9,231.9,130,185.5,68,139.2c-3.5-2.6-2.9-5.5-3-8.7
	c-0.1-1.5,0.9-1.5,2-1.5c1.2,0,2.3,0,3.5,0c62.3,0,124.6,0,186.9,0c62,0,123.9,0,185.9,0.1c1.8,0,4.9-1.7,5.5,1.2
	C449.4,133.3,449.7,136.5,446.2,139.1z"/>
<g>
</g>
<g>
</g>
<g>
</g>
<g>
</g>
<g>
</g>
<g>
</g>
<g>
</g>
<g>
</g>
<g>
</g>
<g>
</g>
<g>
</g>
<g>
</g>
<g>
</g>
<g>
</g>
<g>
</g>
</svg>
