<?xml version="1.0" encoding="utf-8"?>
<!-- Generator: Adobe Illustrator 23.0.0, SVG Export Plug-In . SVG Version: 6.00 Build 0)  -->
<svg version="1.1" id="레이어_1" xmlns="http://www.w3.org/2000/svg" xmlns:xlink="http://www.w3.org/1999/xlink" x="0px"
	 y="0px" viewBox="0 0 512 512" style="enable-background:new 0 0 512 512;" xml:space="preserve">
<style type="text/css">
	.st0{fill:#489BFF;}
	.st1{fill:#F4867F;}
	.st2{fill:#F26C65;}
	.st3{fill:#F58882;}
	.st4{fill:#F7A5A0;}
	.st5{fill:#1C7BFF;}
	.st6{fill:#FEFEFE;}
	.st7{fill:#BE302F;}
	.st8{fill:#BD2E2D;}
	.st9{fill:#D5D5D5;}
</style>
<path class="st0" d="M241,513c-1.7,0-3.3,0-5,0c-7.2-1.2-14.5-0.8-21.7-1.8c-22.3-3.1-43.4-10-63.9-19.3
	c-22.8-10.3-43.8-23.5-62.5-40c-23.8-21-43.7-45.2-58.5-73.5c-12-22.9-20.9-46.8-25.7-72.2c-1.5-8.2-1.5-16.5-2.2-24.8
	C1.4,280.2,1.9,279,1,278c0-1.7,0-3.3,0-5c0.7-0.7,0.4-1.6,0.5-2.4c-0.2-1.2,0.4-2.5-0.5-3.6c0-6.7,0-13.3,0-20
	c0.9-1.1,0.3-2.4,0.5-3.6c-0.1-0.8,0.2-1.7-0.5-2.4c0-1.7,0-3.3,0-5c1.2-7.2,0.8-14.5,1.8-21.7C6,191.5,13.2,169.9,22.7,149
	c12.7-27.7,29.8-52.4,51.3-73.9c34.8-34.8,76.1-57.8,124-69.4c12.1-2.9,24.3-3.8,36.6-4.3c0.8,0,1.7,0.1,2.4-0.5c1.7,0,3.3,0,5,0
	c1.9,1.1,4,0.2,6,0.5c2-0.3,4.1,0.6,6-0.5c2,0,4,0,6,0c1.9,1.1,4,0.2,6,0.5c2-0.3,4.1,0.6,6-0.5c1.7,0,3.3,0,5,0
	c7.5,1.1,15.2,0.8,22.7,1.8c22.3,3,43.4,10,63.9,19.3c22.8,10.3,43.8,23.5,62.5,40c22.8,20.1,42.1,43.1,56.6,69.9
	c12.9,23.9,22.6,49,27.6,75.8c1.5,8.4,1.6,16.9,2.2,25.3c0.1,1.3-0.4,2.7,0.5,3.9c0,1.3,0,2.7,0,4c-0.7,0.7-0.4,1.6-0.5,2.4
	c0.2,1.2-0.4,2.5,0.5,3.6c0,6.7,0,13.3,0,20c-0.9,1.1-0.3,2.4-0.5,3.6c0.1,0.8-0.2,1.7,0.5,2.4c0,1.7,0,3.3,0,5
	c-1.3,4.9,0,10.1-1.9,15c-1.2,0.7-2-0.1-2.4-1c-1.7-4.4-5.3-7.2-8.4-10.4c-36.5-36.5-73-73-109.5-109.4c-2.6-2.6-4.6-5.7-7.5-8
	c-1.3-1.6-2.8-3-4.4-4.3c-2.9-2.8-5.1-6.4-9.2-7.9c-5.4-3.4-9.4-8.5-13.9-12.9c-13.1-12.8-29.8-12.9-42.9,0.2
	c-16.3,16.2-32.5,32.5-48.8,48.8c-6.1,6.1-7.3,6-13.4,0.1c-16.4-15.7-31.3-32.7-47.5-48.6c-6.7-6.5-14-11-23.9-10.7
	c-7.4,0.2-13.6,2.8-18.9,7.9c-7.8,7.5-15.5,15.2-23,23c-10.9,11.2-10.9,28.4,0.1,39.6c16.2,16.6,32.7,32.8,49.1,49.2
	c8.3,8.3,8.3,8.7,0,17c-15.8,15.8-31.6,31.5-47.3,47.4c-13.2,13.3-13.1,29.8-0.1,43.3c4.7,4.9,10.5,8.8,13.5,15.2
	c1.7,5.8,7,8.6,10.9,12.6c2,2.1,4.4,4,6.5,6.1c36.8,36.8,73.7,73.7,110.5,110.5c3.3,3.3,6.1,7.1,11,8.2c0.9,0.2,1.8,1,1.2,2.3
	c-3.7,1.7-7.8,0.8-11.7,1.4c-1.4,0.2-3-0.4-4.3,0.5c-1.3,0-2.7,0-4,0c-0.7-0.7-1.6-0.4-2.4-0.5c-1.2,0.2-2.5-0.4-3.6,0.5
	c-6.7,0-13.3,0-20,0c-1.1-0.9-2.4-0.3-3.6-0.5C242.6,512.6,241.7,512.3,241,513z"/>
<path class="st1" d="M247.9,1.9c-2-0.2-4.2,0.9-5.9-0.9c2,0,4,0,6,0C248.7,1.4,248.6,1.7,247.9,1.9z"/>
<path class="st2" d="M247.9,1.9c0-0.3,0.1-0.6,0.1-0.9c2,0,4,0,6,0C252.2,2.5,250,1.9,247.9,1.9z"/>
<path class="st2" d="M266.1,1.9C264,1.9,261.8,2.6,260,1c2,0,4,0,6,0C266.6,1.3,266.7,1.6,266.1,1.9z"/>
<path class="st1" d="M266.1,1.9c0-0.3-0.1-0.6-0.1-0.9c2,0,4,0,6,0C270.2,2.8,268.1,1.7,266.1,1.9z"/>
<path class="st3" d="M1.9,242.9c0.1,1.4,0.4,2.9-0.9,4.1c0-1.3,0-2.7,0-4C1.3,242.4,1.5,242.4,1.9,242.9z"/>
<path class="st3" d="M513,247c-1.3-1.1-1-2.6-0.9-4.1c0.3-0.5,0.6-0.5,0.9,0.1C513,244.3,513,245.7,513,247z"/>
<path class="st3" d="M1,267c1.3,1.1,1,2.6,0.9,4.1c-0.3,0.5-0.6,0.5-0.9-0.1C1,269.7,1,268.3,1,267z"/>
<path class="st3" d="M512.1,271.1c-0.1-1.4-0.4-2.9,0.9-4.1c0,1.3,0,2.7,0,4C512.7,271.6,512.5,271.6,512.1,271.1z"/>
<path class="st3" d="M242.9,512.1c1.4-0.1,2.9-0.4,4.1,0.9c-1.3,0-2.7,0-4,0c-0.4-0.2-0.5-0.4-0.4-0.6
	C242.7,512.2,242.8,512.1,242.9,512.1z"/>
<path class="st3" d="M267,513c1.1-1.3,2.6-1,4.1-0.9c0.4,0.2,0.5,0.4,0.3,0.6c-0.1,0.2-0.3,0.3-0.4,0.3C269.7,513,268.3,513,267,513
	z"/>
<path class="st4" d="M1.9,242.9c-0.3,0-0.6,0-0.9,0.1c0-0.7,0-1.3,0-2C1.9,241.4,1.9,242.1,1.9,242.9z"/>
<path class="st4" d="M513,243c-0.3,0-0.6,0-0.9-0.1c0-0.8,0-1.6,0.9-1.9C513,241.7,513,242.3,513,243z"/>
<path class="st4" d="M1,271c0.3,0,0.6,0,0.9,0.1c0,0.8,0,1.6-0.9,1.9C1,272.3,1,271.7,1,271z"/>
<path class="st4" d="M512.1,271.1c0.3,0,0.6,0,0.9-0.1c0,0.7,0,1.3,0,2C512.1,272.6,512.1,271.9,512.1,271.1z"/>
<path class="st4" d="M242.9,512.1c0,0.3,0.1,0.6,0.1,0.9c-0.7,0-1.3,0-2,0C241.4,512.1,242.1,512.1,242.9,512.1z"/>
<path class="st4" d="M271,513c0-0.3,0-0.6,0.1-0.9c0.8-0.1,1.6,0,1.9,0.9C272.3,513,271.7,513,271,513z"/>
<path class="st5" d="M510.1,293.1c-4,30.9-13.6,60-28.9,87c-38.5,68-96.2,110.3-172.3,127.4c-5.2,1.2-10.5,1.7-15.8,2.5
	c-4.3,0.6-7.3-1.4-10.3-4.5c-43-43.2-86.2-86.3-129.1-129.5c-0.9-0.9-5-1.5-1.7-4.3c3.9-0.6,5.5,2.6,7.7,4.7
	c11.5,10.7,28.2,10.7,39.7-0.1c0.8-0.8,1.7-1.6,2.5-2.5c16.4-16.1,32.2-32.8,49.3-48.2c1.5-1.3,2.8-2.9,4.8-3.5
	c3.3-0.6,5.3,1.7,7.2,3.7c16.4,16.8,34.3,32.1,50.3,49.3c11.5,12.4,31,12.6,42.4-0.1c6.7-7.4,14.1-14.1,21.1-21.3
	c10.3-10.6,11.5-25.7,2.4-37.3c-8.2-10.5-18.2-19.5-28-28.5c-9.2-8.4-17.8-17.5-26.7-26.3c-1.3-1.3-2.4-2.8-2.5-4.7
	c0.3-3.3,2.9-5.1,4.9-7.3c15.4-16.2,32.2-30.9,47.9-46.8c7-7.2,11.1-15.3,10.2-25.5c-0.2-2.7-0.9-5.2-1.8-7.7
	c-0.6-1.9-1.8-3.7-1-5.8c0.4-0.7,0.9-1.2,1.8-0.9c9.1,9,18.2,18,27.3,27.1c31.7,31.7,63.3,63.4,95.1,95
	C508.8,287.3,510.5,289.6,510.1,293.1z"/>
<path class="st6" d="M256,322.9c-18.5,18.4-36.9,37.1-55.7,55.2c-12.3,11.8-29.8,11.3-42.3-0.4c-2.1-1.9-4.1-3.9-6.1-5.9
	c-5-5.1-10.1-10.1-15-15.2c-12.8-13.2-12.8-31,0.1-44.1c17.2-17.4,34.5-34.7,52-51.9c2.7-2.7,3-4.1,0.1-6.9
	c-17.1-16.8-34-33.8-51-50.8c-14.5-14.5-14.5-32.1,0.1-46.6c6.3-6.4,12.7-12.7,19.1-19.1c14.1-14,31.9-14.1,45.9,0
	c17,17.1,34.1,34.2,50.9,51.6c2.8,2.9,4.2,2.6,6.9-0.1c16.6-16.8,33.4-33.5,50.1-50.2c14.6-14.6,32.1-14.6,46.6-0.1
	c4.4,4.3,8.8,8.6,13.2,12.9c3.6,2.3,6.1,5.8,9.2,8.6c1.3,1.2,2.2,2.7,2.8,4.4c7.6,16.9,5.5,27.8-7.7,40.9
	c-17.5,17.3-34.9,34.7-52.3,52.1c-0.4,2.4-1.9,4.1-3.6,5.8c-18.7,18.7-37.4,37.4-56.1,56.1C261.2,321,259,322.6,256,322.9z"/>
<path class="st7" d="M379.9,160.2c-3-3.1-6-6.1-8.9-9.2c4.5,1,6.2,5.1,9.1,7.8C380.5,159.4,380.5,159.8,379.9,160.2z"/>
<path class="st8" d="M379.9,160.2c0-0.5,0.1-0.9,0.1-1.4c1.3,1.3,2.7,2.7,4,4c-0.4,0.4-0.7,0.8-1.1,1.2
	C381.9,162.8,380.9,161.5,379.9,160.2z"/>
<path class="st9" d="M256,322.9c10.2-10,20.3-19.9,30.5-29.9c12.2-12,24.3-24,36.5-36c18.2,18.1,36.4,36.1,54.5,54.2
	c11,11,13.1,25.5,5.5,38.3c-1.5,2.5-3.5,4.9-5.6,7c-6.7,6.9-13.5,13.8-20.5,20.5c-13.6,13.3-31.2,13.3-44.7,0
	c-17.3-17-34.5-34.2-51.8-51.3C259.2,324.4,258.3,322.5,256,322.9z"/>
<g>
</g>
<g>
</g>
<g>
</g>
<g>
</g>
<g>
</g>
<g>
</g>
<g>
</g>
<g>
</g>
<g>
</g>
<g>
</g>
<g>
</g>
<g>
</g>
<g>
</g>
<g>
</g>
<g>
</g>
</svg>
