<?xml version="1.0" encoding="utf-8"?>
<!-- Generator: Adobe Illustrator 23.0.0, SVG Export Plug-In . SVG Version: 6.00 Build 0)  -->
<svg version="1.1" id="레이어_1" xmlns="http://www.w3.org/2000/svg" xmlns:xlink="http://www.w3.org/1999/xlink" x="0px"
	 y="0px" viewBox="0 0 512 512" style="enable-background:new 0 0 512 512;" xml:space="preserve">
<style type="text/css">
	.st0{fill:#1C7BFF;}
	.st1{fill:#489BFF;}
	.st2{fill:none;}
	.st3{fill:#FFFFFF;}
</style>
<path class="st0" d="M391,513c-89.7,0-179.3,0-269,0c-0.4-0.2-0.9-0.5-1.4-0.5c-23.7-1.2-38.7-15.1-49.7-34.4
	c-4.8-8.5-7.3-17.8-7.3-27.7c0-128.9,0-257.8,0-386.7c0-24.7,18.6-51,41.7-59.6c5.7-2.1,11.8-1.8,17.6-3.1c60,0,120,0,180,0
	c2.8,3.4,2.3,7.5,2.3,11.5c0,41.1,0,82.3,0,123.4c0,12.7,0,12.7,12.7,12.7c37.1,0,74.3,0,111.4,0c5.8,0,11.7,0,17.4,1
	c2.5,0.8,3.1,2.8,3.2,5.1c0.2,2.7,0.2,5.3,0.2,8c0,95.1,0.1,190.1-0.1,285.2c0,27.9-14.2,47.4-38,60.5
	C405.7,512.1,398.1,511.6,391,513z"/>
<path class="st1" d="M304,1c14,14.7,27.9,29.5,41.9,44.2c32.9,34.4,65.9,68.8,98.8,103.2c0.8,0.8,1.5,1.8,2.2,2.6
	c-45.8,0-91.6,0-137.4,0c-6.5,0-6.5,0-6.5-6.7c0-47.8-0.1-95.6-0.1-143.4C303.3,1,303.7,1,304,1z"/>
<g>
	<rect x="134.7" y="285" class="st2" width="277.3" height="145"/>
	<path class="st3" d="M163,328.4h31.3c0.9,0,1.6,0.2,2,0.5c0.4,0.3,0.6,1,0.6,2v12c0,1-0.2,1.7-0.6,2c-0.4,0.3-1.1,0.5-2,0.5H163v33
		c0,1-0.2,1.7-0.6,2c-0.4,0.3-1.1,0.5-2,0.5h-14c-0.9,0-1.6-0.2-2-0.5c-0.4-0.3-0.6-1-0.6-2v-74.6c0-1.9,0.1-3.6,0.4-5.2
		c0.2-1.6,0.8-2.9,1.6-4c0.8-1.1,2.1-1.9,3.7-2.5c1.6-0.6,3.8-0.9,6.6-0.9h42.1c0.9,0,1.6,0.2,2,0.5c0.4,0.3,0.6,1,0.6,2v12
		c0,1-0.2,1.7-0.6,2c-0.4,0.3-1.1,0.5-2,0.5h-30.4c-1.8,0-3,0.3-3.7,1c-0.7,0.7-1,2-1,4V328.4z"/>
	<path class="st3" d="M216.1,380.9c-0.9,0-1.6-0.2-2-0.5c-0.4-0.3-0.6-1-0.6-2v-84.7c0-1,0.2-1.7,0.6-2c0.4-0.3,1.1-0.5,2-0.5h14
		c0.9,0,1.6,0.2,2,0.5c0.4,0.3,0.6,1,0.6,2v84.7c0,1-0.2,1.7-0.6,2c-0.4,0.3-1.1,0.5-2,0.5H216.1z"/>
	<path class="st3" d="M270,358.9c0,1.9,0.3,3.3,1,3.9c0.7,0.7,1.9,1.1,3.7,1.1h23.7c0.9,0,1.6,0.2,2,0.5c0.4,0.3,0.6,1,0.6,2v12
		c0,1-0.2,1.7-0.6,2c-0.4,0.3-1.1,0.5-2,0.5h-35.5c-2.8,0-5-0.3-6.6-0.9s-2.8-1.5-3.7-2.5c-0.8-1.1-1.4-2.4-1.6-4
		c-0.2-1.6-0.4-3.3-0.4-5.2v-74.6c0-1,0.2-1.7,0.6-2c0.4-0.3,1.1-0.5,2-0.5h14.1c0.9,0,1.6,0.2,2,0.5c0.4,0.3,0.6,1,0.6,2V358.9z"/>
	<path class="st3" d="M332.2,328.4h32.3c0.9,0,1.6,0.2,2,0.5c0.4,0.3,0.6,1,0.6,2v12c0,1-0.2,1.7-0.6,2c-0.4,0.3-1.1,0.5-2,0.5
		h-32.3v13.5c0,1.9,0.3,3.3,1,3.9c0.7,0.7,1.9,1.1,3.7,1.1h31.4c0.9,0,1.6,0.2,2,0.5c0.4,0.3,0.6,1,0.6,2v12c0,1-0.2,1.7-0.6,2
		c-0.4,0.3-1.1,0.5-2,0.5h-42.1c-2.8,0-5-0.3-6.6-0.9c-1.6-0.6-2.8-1.5-3.7-2.5c-0.8-1.1-1.4-2.4-1.6-4c-0.2-1.6-0.4-3.3-0.4-5.2
		v-64.5c0-1.9,0.1-3.6,0.4-5.2c0.2-1.6,0.8-2.9,1.6-4c0.8-1.1,2-1.9,3.7-2.5c1.6-0.6,3.8-0.9,6.6-0.9h42.1c0.9,0,1.6,0.2,2,0.5
		c0.4,0.3,0.6,1,0.6,2v12c0,1-0.2,1.7-0.6,2c-0.4,0.3-1.1,0.5-2,0.5h-31.4c-1.8,0-3,0.3-3.7,1c-0.7,0.7-1,2-1,4V328.4z"/>
</g>
<g>
</g>
<g>
</g>
<g>
</g>
<g>
</g>
<g>
</g>
<g>
</g>
<g>
</g>
<g>
</g>
<g>
</g>
<g>
</g>
<g>
</g>
<g>
</g>
<g>
</g>
<g>
</g>
<g>
</g>
</svg>
