<?xml version="1.0" encoding="utf-8"?>
<!-- Generator: Adobe Illustrator 23.0.0, SVG Export Plug-In . SVG Version: 6.00 Build 0)  -->
<svg version="1.1" id="레이어_1" xmlns="http://www.w3.org/2000/svg" xmlns:xlink="http://www.w3.org/1999/xlink" x="0px"
	 y="0px" viewBox="0 0 512 512" style="enable-background:new 0 0 512 512;" xml:space="preserve">
<style type="text/css">
	.st0{fill:#FCCE5C;}
	.st1{fill:#FCB54C;}
	.st2{fill:#FCB145;}
	.st3{fill:#FCDA83;}
	.st4{fill:#1C7BFF;}
	.st5{fill:#737373;}
	.st6{fill:#FEFEFE;}
</style>
<path class="st0" d="M346,1c-2,1.4-4,1.6-6,0C342,1,344,1,346,1z"/>
<path class="st1" d="M513,160c-1.4-2-1.6-4,0-6C513,156,513,158,513,160z"/>
<path class="st2" d="M513,177c-1.6-2-1.5-4,0-6C513,173,513,175,513,177z"/>
<path class="st3" d="M359,1c-1.3,1.6-2.7,1.3-4,0C356.3,1,357.7,1,359,1z"/>
<path class="st4" d="M1,242.5c2.8-6,2.4-12.8,4.2-19.1c15.3-53.4,49.5-88,103.3-101.3c58.1-14.4,118,10.5,150.1,62.3
	c4.5,7.2,8.4,14.7,11.2,22.7c1,2.9,2.4,4,5.7,4c77.7-0.1,155.3-0.1,233-0.1c1.1,0,2.3-0.3,3.4-0.4c0,31.3,0,62.5,0,93.8
	c-2,1.7-4.4,1.4-6.7,1.4c-10,0-20,0-29.9,0c-8.9,0-8.9,0-8.9,8.6c0,23.9,0,47.9,0,71.8c0,1.5,0,3,0,4.5c-0.1,6.9-1,7.8-7.8,7.8
	c-26.4,0.1-52.9,0.1-79.3,0c-7.4,0-8.6-1.3-8.6-8.9c0-25.6,0-51.2,0-76.8c0-6.9-0.2-7.1-6.9-7.1c-28.3,0-56.5,0.1-84.8-0.1
	c-4.9,0-7.3,1.8-9.3,6.3c-22.3,49.2-60.1,78.7-113.8,85.1c-44.2,5.3-83-8.7-115-40.1c-20.6-20.2-33.4-44.5-38.7-72.8
	c-0.7-3.9,0-8-1.4-11.8c0-1.7,0-3.3,0-5c0.6-0.7,0.6-1.3,0-2c0-5.3,0-10.6,0-16c0.6-0.7,0.6-1.3,0-2C1,245.9,1,244.2,1,242.5z"/>
<path class="st5" d="M1,247.5c1.4,0.7,1.3,1.3,0,2C1,248.8,1,248.2,1,247.5z"/>
<path class="st5" d="M1,265.5c1.3,0.7,1.4,1.3,0,2C1,266.8,1,266.1,1,265.5z"/>
<path class="st6" d="M140.4,303.9c-25.3,0-46.3-20.9-46.5-46.2c-0.2-25.2,20.6-46.1,46.2-46.5c25.3-0.4,46.7,21,46.6,46.5
	C186.6,283,165.8,303.8,140.4,303.9z"/>
</svg>
