<?xml version="1.0" encoding="utf-8"?>
<!-- Generator: Adobe Illustrator 23.0.0, SVG Export Plug-In . SVG Version: 6.00 Build 0)  -->
<svg version="1.1" id="레이어_1" xmlns="http://www.w3.org/2000/svg" xmlns:xlink="http://www.w3.org/1999/xlink" x="0px"
	 y="0px" viewBox="0 0 512 512" style="enable-background:new 0 0 512 512;" xml:space="preserve">
<style type="text/css">
	.st0{fill:#FFFFFF;}
	.st1{fill:#E6E6E6;}
</style>
<path class="st0" d="M370.5,273c16.3,0,32.7-0.1,49,0c37.3,0.2,71.6,30.4,76.6,67.3c0.6,4.6,0.9,9.3,0.9,13.9c0,31.3,0,62.6,0,94
	c0,27.8-20.8,48.7-48.5,48.8c-32.2,0-64.3,0.1-96.5,0c-39-0.1-72.4-29.2-78.2-67.9c-0.5-3.6-0.8-7.3-0.8-10.9c0-32.3,0-64.6,0-97
	c0-27.4,21-48.2,48.5-48.2C337.8,273,354.2,273,370.5,273z"/>
<path class="st0" d="M497,114.6c0,16.2,0.1,32.3,0,48.5c-0.2,37.7-30.1,71.8-67.5,77c-4.3,0.6-8.6,0.9-12.9,0.9c-31.7,0-63.3,0-95,0
	c-27.7,0-48.6-20.9-48.6-48.6c0-31.8,0-63.6,0-95.5c0-44.4,35.5-79.9,79.9-79.9c32,0,64,0,96,0c27.1,0,48.1,21.1,48.1,48.1
	C497,81.6,497,98.1,497,114.6z"/>
<path class="st1" d="M241,144.3c0,16,0.1,32,0,48c-0.1,27.7-21,48.6-48.8,48.7c-31.8,0.1-63.6,0.1-95.4,0
	c-44.1-0.2-79.6-35.7-79.7-79.8c-0.1-31.6-0.1-63.3,0-94.9C17.1,37.8,37.9,17.1,66.3,17c31.5-0.1,63-0.1,94.4,0
	c44.8,0.1,80.1,35.5,80.3,80.3C241,113,241,128.7,241,144.3z"/>
<path class="st1" d="M114.5,497c-16.2,0-32.3,0.1-48.5,0c-28.1-0.1-48.9-20.9-49-49c-0.1-31.8-0.1-63.6,0-95.4
	c0.1-39.9,29.5-73.3,69.1-78.8c4-0.6,7.9-0.8,11.9-0.8c31,0,62,0,92.9,0c29.4,0,50,20.6,50,50c0,31,0,62,0,92.9
	c-0.1,45.8-35.2,81-81,81.1C144.8,497,129.7,497,114.5,497z"/>
<g>
</g>
<g>
</g>
<g>
</g>
<g>
</g>
<g>
</g>
<g>
</g>
<g>
</g>
<g>
</g>
<g>
</g>
<g>
</g>
<g>
</g>
<g>
</g>
<g>
</g>
<g>
</g>
<g>
</g>
</svg>
