<?xml version="1.0" encoding="utf-8"?>
<!-- Generator: Adobe Illustrator 23.0.0, SVG Export Plug-In . SVG Version: 6.00 Build 0)  -->
<svg version="1.1" id="레이어_1" xmlns="http://www.w3.org/2000/svg" xmlns:xlink="http://www.w3.org/1999/xlink" x="0px"
	 y="0px" viewBox="0 0 512 512" style="enable-background:new 0 0 512 512;" xml:space="preserve">
<style type="text/css">
	.st0{fill:#489BFF;}
	.st1{fill:#1C7BFF;}
	.st2{fill:#66B3FF;}
	.st3{fill:#7ABEF5;}
</style>
<path class="st0" d="M1,131c2.8-7.1,4.2-14.8,9.1-20.9c1.9-1.5,3.1,0.2,4.4,1.1c48.1,32.8,96.1,65.8,144.1,98.7
	c15,10.3,29.8,20.6,44.9,30.7c2,1.4,4.5,2.4,5,5.2c-0.2,2.7-2.3,3.9-4.1,5.3c-33,27.6-66.1,55.1-99.2,82.7
	c-28.6,23.9-57.2,47.6-85.8,71.5c-1.6,1.4-3.1,3.1-5.4,3.4c-5.4-5.8-8.8-12.6-10.9-20.1C2.6,387,2.9,385,1,384
	C1,299.7,1,215.3,1,131z"/>
<path class="st0" d="M503.8,110.1c5,6.5,6.6,14.4,9.2,21.9c0,84,0,168,0,252c-1.9,1-1.6,3-2.1,4.7c-2.2,7.5-5.6,14.3-10.9,20.1
	c-7.2-3.7-12.7-9.6-18.8-14.7c-31.6-26.3-63.2-52.6-94.8-78.9c-26-21.6-51.9-43.3-77.9-64.9c-1.4-1.2-2.9-2.3-3-4.4
	c0.4-2.5,2.3-3.5,4.1-4.7c33.8-22.9,67.4-46,101.1-69.1c29.1-20,58.4-39.7,87.4-59.8C499.7,111.1,501.3,109.3,503.8,110.1z"/>
<path class="st1" d="M306,245.9c4.4,5.5,10.4,9.2,15.6,13.7c10.9,9.4,22.1,18.4,33.2,27.6c13.3,11,26.5,22,39.7,33
	c12.8,10.7,25.6,21.5,38.5,32.2c13.1,10.9,26.4,21.6,39.3,32.7c9.2,7.9,18.9,15,27.5,23.5c-11.2,13.6-26.1,18.9-43.2,18.9
	c-72.5,0-145,0-217.5,0c-60.7,0-121.3,0-182,0c-16.3,0-30.4-5.1-41.7-17c-0.6-0.6-1-1.3-1.5-2c6.6-6.8,14.3-12.3,21.4-18.4
	c10.9-9.4,22.2-18.4,33.2-27.6c13.3-11,26.5-22,39.7-33c10.7-8.9,21.3-17.8,32-26.8c13.4-11.1,26.9-22,40.1-33.4
	c9.1-7.9,19-14.9,27.4-23.6c2.3-1.4,3.7,0.5,5.3,1.5c6.1,3.8,11.8,8,17.8,11.9c6,3.8,12.5,6.1,19.4,7.3c1.8,0.1,3.5,0.1,5.3,0
	c0.8,0,1.5,0,2.3,0c1.8,0.1,3.6,0.1,5.3,0c8.8-1.2,16.5-4.9,23.6-10c4.6-3.3,9.3-6.4,14-9.5C302.5,246.2,303.9,244.6,306,245.9z"/>
<path class="st2" d="M306,245.9c-6.9,3.5-13,8.3-19.4,12.6c-6.9,4.7-14.4,8-22.7,9.3c-1.9-0.7-3.9-0.7-5.8,0c-0.7,0-1.4,0-2.2,0
	c-1.9-0.6-3.9-0.7-5.8,0c-14.4-1.9-24.9-11.4-36.5-18.8c-1.8-1.1-3.3-2.8-5.5-3.1c-5.6-5.8-12.8-9.4-19.3-13.9
	c-34.4-23.8-69.1-47.3-103.6-71c-24.4-16.7-48.7-33.5-73.1-50.3c-0.5-0.4-1.2-0.4-1.9-0.6c11-16.5,27-23.8,46.3-23.8
	c133.7-0.1,267.5-0.1,401.2,0c19.3,0,35.2,7.4,46.2,23.9c-15.6,10.5-31.2,20.9-46.7,31.5c-17.7,12.1-35.3,24.3-53,36.4
	c-31.8,21.8-63.6,43.5-95.4,65.2C307.7,243.9,306.9,245,306,245.9z"/>
<path class="st3" d="M250.1,267.9c1.9-1.4,3.9-1.4,5.8,0C254,267.9,252,267.9,250.1,267.9z"/>
<path class="st3" d="M258.1,267.9c2-1.4,3.9-1.4,5.8,0C262,267.9,260,267.9,258.1,267.9z"/>
</svg>
