<?xml version="1.0" encoding="utf-8"?>
<!-- Generator: Adobe Illustrator 23.0.0, SVG Export Plug-In . SVG Version: 6.00 Build 0)  -->
<svg version="1.1" id="레이어_1" xmlns="http://www.w3.org/2000/svg" xmlns:xlink="http://www.w3.org/1999/xlink" x="0px"
	 y="0px" viewBox="0 0 512 512" style="enable-background:new 0 0 512 512;" xml:space="preserve">
<style type="text/css">
	.st0{stroke:#000000;stroke-width:8;stroke-miterlimit:10;}
</style>
<path class="st0" d="M256.5,261c-64.8,0-129.7,0-194.5,0c-4.2,0-5.3-0.3-5.1-1.4c0.3-2.8,0.3-5.7,0-8.5c-0.1-0.9,0.9-1.1,4.1-1.1
	c30.8,0,61.7,0,92.5,0c99.3,0,198.7,0,298,0c4.5,0,5.8,0.3,5.6,1.5c-0.4,2.7-0.3,5.5,0,8.2c0.1,1-0.9,1.3-4.6,1.3
	C387.2,261,321.8,261,256.5,261z"/>
<g>
</g>
<g>
</g>
<g>
</g>
<g>
</g>
<g>
</g>
<g>
</g>
<g>
</g>
<g>
</g>
<g>
</g>
<g>
</g>
<g>
</g>
<g>
</g>
<g>
</g>
<g>
</g>
<g>
</g>
</svg>
