<?xml version="1.0" encoding="utf-8"?>
<!-- Generator: Adobe Illustrator 23.0.0, SVG Export Plug-In . SVG Version: 6.00 Build 0)  -->
<svg version="1.1" id="레이어_1" xmlns="http://www.w3.org/2000/svg" xmlns:xlink="http://www.w3.org/1999/xlink" x="0px"
	 y="0px" viewBox="0 0 512 512" style="enable-background:new 0 0 512 512;" xml:space="preserve">
<style type="text/css">
	.st0{fill:#FF4743;}
	.st1{fill:#1C7BFF;}
	.st2{fill:#489BFF;}
</style>
<path class="st0" d="M409,1c3.5,2.1,7.5,1.9,11.3,2.8c48.9,11.4,83.9,56.4,82.4,106.1c-1.5,51.3-38.2,94.1-88.3,102.8
	C352.7,223.6,295,179,289.8,116.4c-4.5-54.7,33-103.7,86.8-113.6c1.8-0.3,4,0.1,5.4-1.8C391,1,400,1,409,1z"/>
<path class="st1" d="M310.1,433.2c-0.1,30.5-22.7,61.6-53.3,73.8c-6.8,2.7-14,3.6-20.8,6c-7.7,0-15.3,0-23,0
	c-1.2-1.9-3.3-1.4-4.9-1.8c-39.8-8.5-67.6-42.4-68.1-83.2c1.9-1.8,4.3-1.6,6.6-1.6c52.2,0,104.5-0.1,156.7,0
	C310.3,426.4,310.8,427.1,310.1,433.2z"/>
<path class="st2" d="M310.1,433.2c0.5-4.5-1.6-5.4-5.8-5.3C249.6,428,194.8,428,140,428c-29.3-0.1-58.7-0.2-88-0.2
	c-6.9,0-13.6-1.1-19.8-4.3c-23.4-12.3-27.4-43.4-7.5-61c23.9-21.1,40.4-46.7,47.6-77.9c2.5-10.9,3.7-22,3.7-33.2c0-19,0-38,0-57
	c0.2-72.8,49.2-133,120.4-147.8c19.6-4.1,39.4-3.7,59,0.3c3.3,0.7,3.6,1.7,2.4,4.5c-8.1,19.3-12.1,39.5-11,60.4
	c3.4,62.6,34.3,106.7,90.8,133.1c10.7,5,22.2,8,33.9,9.9c2.4,0.4,3.3,1.2,3.4,3.7c2.1,41.6,19.3,75.7,50.3,103.4
	c19.3,17.3,17.2,46-3.7,59.6c-6.9,4.5-14.6,6.2-22.8,6.2c-27.3,0-54.7,0.1-82-0.1C312.3,427.6,310.2,428.7,310.1,433.2z"/>
<g>
</g>
<g>
</g>
<g>
</g>
<g>
</g>
<g>
</g>
<g>
</g>
<g>
</g>
<g>
</g>
<g>
</g>
<g>
</g>
<g>
</g>
<g>
</g>
<g>
</g>
<g>
</g>
<g>
</g>
</svg>
