<?xml version="1.0" encoding="utf-8"?>
<!-- Generator: Adobe Illustrator 23.0.0, SVG Export Plug-In . SVG Version: 6.00 Build 0)  -->
<svg version="1.1" id="레이어_1" xmlns="http://www.w3.org/2000/svg" xmlns:xlink="http://www.w3.org/1999/xlink" x="0px"
	 y="0px" viewBox="0 0 512 512" style="enable-background:new 0 0 512 512;" xml:space="preserve">
<style type="text/css">
	.st0{fill:#1C7BFF;stroke:#1C7BFF;stroke-width:5;stroke-miterlimit:10;}
</style>
<g>
	<path class="st0" d="M457,61.4c0.1-32.3-24.3-53.5-53.2-53.4c-97.2,0.6-194.3,0.2-291.5,0.3c-4.2,0-8.6,0.1-12.7,0.9
		c-24.5,5.1-40.1,25-40.1,51.2c-0.1,69.2,0,138.5,0,207.7c0,69.4,0,138.9,0,208.3c0,18.5,9.8,28.2,28.3,28.2c113.7,0,227.3,0,341,0
		c18.5,0,28.2-9.8,28.2-28.4C456.9,337.9,456.7,199.6,457,61.4z M407.2,448.9c0,5-1,6.4-6.2,6.4c-95.2-0.2-190.4-0.2-285.6,0
		c-5.1,0-6.4-1.1-6.3-6.3c0.2-64.2,0.1-128.4,0.1-192.5s0.1-128.4-0.1-192.5c0-5,1-6.4,6.3-6.4c95.2,0.2,190.4,0.2,285.6,0
		c5.1,0,6.3,1.1,6.3,6.3C407.1,192.2,407.1,320.6,407.2,448.9z"/>
	<path class="st0" d="M163.2,157.3c21.9-0.1,43.8-0.1,65.7,0c3.7,0,4.6-1.1,4.5-4.6c-0.2-13.6-0.2-27.1,0-40.7
		c0.1-3.5-0.8-4.7-4.5-4.6c-10.9,0.3-21.7,0.1-32.6,0.1c-11.2,0-22.5,0.1-33.7-0.1c-3.1,0-3.9,0.8-3.9,3.9c0.2,14,0.2,27.9,0,41.9
		C158.8,156.6,160,157.3,163.2,157.3z"/>
	<path class="st0" d="M282.8,153.1c0,3.4,1.1,4.3,4.3,4.2c11.1-0.2,22.1-0.1,33.2-0.1c10.9,0,21.7-0.1,32.6,0.1
		c3.6,0.1,4.6-1,4.6-4.6c-0.2-13.8-0.1-27.5,0-41.3c0-2.8-0.4-4.1-3.7-4.1c-22.3,0.2-44.6,0.1-66.9,0c-2.9,0-4.1,0.5-4,3.8
		C283,125.2,283,139.1,282.8,153.1z"/>
	<path class="st0" d="M229.2,206.6c-11.1,0.2-22.1,0.1-33.2,0.1c-11.1,0-22.1,0.1-33.2-0.1c-3,0-4.1,0.8-4,3.9
		c0.1,14.2,0.1,28.3,0,42.5c0,2.9,0.9,3.5,3.6,3.5c22.3-0.1,44.6-0.1,66.9,0c3.5,0,4.1-1.1,4.1-4.3c-0.2-13.8-0.2-27.5,0-41.3
		C233.5,207.6,232.5,206.6,229.2,206.6z"/>
	<path class="st0" d="M357.4,211.6c0-3.4-1-4.1-4.2-4.1c-22.1,0.1-44.2,0.1-66.2,0c-3.3,0-4.2,1-4.2,4.2c0.2,13.6,0.2,27.1,0,40.7
		c-0.1,3.5,1.1,4.2,4.3,4.1c11-0.2,22.1-0.1,33.1-0.1c10.8,0,21.7-0.1,32.5,0.1c3.2,0,4.8-0.2,4.7-4.2
		C357.2,238.7,357.2,225.2,357.4,211.6z"/>
	<path class="st0" d="M228.6,306.1c-21.7,0.2-43.4,0.2-65.2,0c-3.4,0-4.7,0.5-4.6,4.4c0.3,13.6,0.2,27.2,0,40.7
		c-0.1,3.5,0.8,4.6,4.5,4.5c10.7-0.3,21.3-0.1,32-0.1c11.1,0,22.1-0.2,33.2,0.1c4.2,0.1,5.1-1.3,5.1-5.3c-0.2-13.2-0.2-26.4,0-39.6
		C233.6,307.1,232.4,306.1,228.6,306.1z"/>
	<path class="st0" d="M353.1,306.1c-21.9,0.1-43.8,0.1-65.7,0c-3.5,0-4.7,0.9-4.6,4.5c0.2,13.6,0.2,27.2,0,40.7
		c-0.1,3.9,1.4,4.4,4.8,4.4c10.9-0.2,21.7-0.1,32.6-0.1c11.1,0,22.1-0.1,33.2,0.1c3.3,0.1,4.2-1,4.2-4.2c-0.2-13.8-0.2-27.5,0-41.3
		C357.5,306.7,356.2,306.1,353.1,306.1z"/>
</g>
<g>
</g>
<g>
</g>
<g>
</g>
<g>
</g>
<g>
</g>
<g>
</g>
<g>
</g>
<g>
</g>
<g>
</g>
<g>
</g>
<g>
</g>
<g>
</g>
<g>
</g>
<g>
</g>
<g>
</g>
</svg>
