<?xml version="1.0" encoding="utf-8"?>
<!-- Generator: Adobe Illustrator 23.0.0, SVG Export Plug-In . SVG Version: 6.00 Build 0)  -->
<svg version="1.1" id="레이어_1" xmlns="http://www.w3.org/2000/svg" xmlns:xlink="http://www.w3.org/1999/xlink" x="0px"
	 y="0px" viewBox="0 0 512 512" style="enable-background:new 0 0 512 512;" xml:space="preserve">
<style type="text/css">
	.st0{fill:#FFFFFF;stroke:#FFFFFF;stroke-width:10;stroke-miterlimit:10;}
</style>
<path class="st0" d="M491.6,459.7c-5.4,0.2-5.2-2.4-5.2-6.2c0.1-78.6,0-157.2,0-235.8c0-11.6-3.4-15-15-15c-61.3,0-122.5,0-183.8,0
	c-6.8,0-6.8,0-6.8-7c0-53,0-106.1,0-159.1c0-4.2-0.5-8-3.8-11c-4-3.5-8.8-3.6-15-0.1c-75.4,41.9-150.7,83.8-226.2,125.6
	c-6.2,3.4-8.5,7.8-8.5,14.7c-0.7,95.9-1.6,191.9-2.3,287.8c0,3.9-0.1,6.3-5.3,6.1c-6-0.2-10.5,5.2-10.5,10.9
	c0,5.7,4.3,10.4,10.4,11.1c2.1,0.2,4.2,0.2,6.3,0.2c76.5,0,153,0,229.5,0c76.7,0,153.3,0,230,0c2.1,0,4.2,0,6.3-0.2
	c6.2-0.7,10.5-5.3,10.5-11.1C502,465,497.6,459.6,491.6,459.7z M181.3,383.7c-0.2,11.9-0.1,23.8-0.1,35.7c0,11.9-0.1,23.8,0.1,35.7
	c0,3.1-0.3,4.6-4.1,4.5c-15.6-0.2-31.1-0.2-46.7,0c-3.3,0-4.1-1-4-4.1c0.1-24,0.2-47.9,0-71.9c0-3.7,1.2-4.3,4.5-4.2
	c15.4,0.1,30.8,0.2,46.2,0C180.8,379.2,181.4,380.5,181.3,383.7z M252.5,459.6c-14.7-0.4-29.4-0.3-44.1-0.1
	c-3.7,0.1-4.6-0.8-4.6-4.6c0.2-27.8,0.1-55.7,0.1-83.5c0-10.9-3.9-14.8-14.9-14.8c-23.3,0-46.6,0-69.8,0c-11,0-14.8,3.8-14.8,14.8
	c0,27.8-0.1,55.7,0.1,83.5c0,3.7-0.9,4.6-4.6,4.5c-15.9-0.2-31.9-0.3-47.8,0c-4.2,0.1-4.7-1.3-4.7-5c0.8-93.8,1.6-187.6,2.3-281.4
	c0-2.6,0.5-4.4,3.1-5.8C120.1,130,187.6,92.5,255,55c0.9-0.5,1.8-0.9,3.5-1.7c0,2.6,0,4.4,0,6.1c0,131.3,0,262.5,0.1,393.8
	C258.6,458.2,257.7,459.8,252.5,459.6z M386.9,455.8c0,3-0.9,3.8-3.8,3.7c-7.2-0.2-14.3-0.2-21.5,0c-3.1,0.1-3.8-1-3.7-3.9
	c0.1-12.2,0.1-24.5,0.1-36.7c0-11.7,0.1-23.4-0.1-35.1c0-3.1,0.4-4.7,4.2-4.5c7,0.4,14,0.2,21,0c2.8-0.1,3.9,0.5,3.9,3.6
	C386.8,407.2,386.8,431.5,386.9,455.8z M463.9,342.2c0,37.5-0.1,74.9,0.1,112.4c0,3.8-0.7,5-4.8,4.9c-15.1-0.3-30.1-0.3-45.2,0
	c-3.9,0.1-5-0.9-4.9-4.9c0.2-27.7,0.1-55.3,0.1-83c0-11.5-3.4-14.9-15.1-14.9c-14.7,0-29.4,0-44.1,0c-10.6,0-14.4,4-14.5,14.7
	c0,27.8-0.1,55.7,0.1,83.5c0,3.6-0.8,4.7-4.6,4.6c-15.4-0.2-30.8-0.2-46.2,0c-3.2,0-4.1-0.8-4.1-4c0.1-75.5,0.1-150.9,0-226.4
	c0-3.9,1.5-4.1,4.6-4.1c57.9,0.1,115.9,0.1,173.8,0c3.9,0,4.9,0.9,4.9,4.8C463.8,267.3,463.9,304.8,463.9,342.2z"/>
<g>
</g>
<g>
</g>
<g>
</g>
<g>
</g>
<g>
</g>
<g>
</g>
<g>
</g>
<g>
</g>
<g>
</g>
<g>
</g>
<g>
</g>
<g>
</g>
<g>
</g>
<g>
</g>
<g>
</g>
</svg>
