<?xml version="1.0" encoding="utf-8"?>
<!-- Generator: Adobe Illustrator 23.0.0, SVG Export Plug-In . SVG Version: 6.00 Build 0)  -->
<svg version="1.1" id="레이어_1" xmlns="http://www.w3.org/2000/svg" xmlns:xlink="http://www.w3.org/1999/xlink" x="0px"
	 y="0px" viewBox="0 0 512 512" style="enable-background:new 0 0 512 512;" xml:space="preserve">
<style type="text/css">
	.st0{fill:#FFFFFF;}
</style>
<g>
	<path class="st0" d="M456.5,143.8C411.5,99,366.6,54.1,321.8,9.1C315.7,2.9,308.7,0,300,0c-60.4,0.1-120.8,0-181.1,0.1
		c-5.1,0-10.2,0.3-15.2,1.3C69.8,8.2,46.9,36.2,46.9,70.8c-0.1,61.8,0,123.7,0,185.5c0,61.3,0,122.6,0,183.9
		c0,41.8,30.4,72.2,72.2,72.2c91.5,0,182.9,0,274.4,0c5.3,0,10.6-0.3,15.7-1.4c33.8-7,56.7-34.9,56.7-69.6c0.1-91.7,0-183.3,0.1-275
		C466,157.3,463,150.2,456.5,143.8z M419.2,440c0,16.6-9.3,25.7-26.1,25.7c-91.1,0-182.2,0-273.3,0c-17.2,0-26.3-9-26.3-26.1
		c0-61.3,0-122.5,0-183.8c0-60.7,0.3-121.5-0.2-182.2c-0.2-17.7,12.1-27.3,27.3-27.2c51.3,0.6,102.5,0.3,153.8,0.1
		c4.4,0,5.3,1.2,5.2,5.4c-0.2,35.8-0.1,71.6-0.1,107.5c0,17.8,9.1,27,26.7,27c36,0,72,0.1,108-0.1c4,0,5.1,0.8,5.1,5
		C419.2,274.2,419.3,357.1,419.2,440z"/>
	<path class="st0" d="M344.7,233c-29.4,0.2-58.9,0.1-88.3,0.1s-58.9,0.1-88.3-0.1c-3.8,0-4.9,0.9-4.8,4.7c0.3,12.5,0.2,25.1,0,37.6
		c-0.1,3.4,0.9,4.2,4.3,4.2c59.2-0.1,118.5-0.1,177.7,0c3.3,0,4.3-0.8,4.2-4.2c-0.2-12.5-0.3-25.1,0-37.6
		C349.6,233.8,348.5,232.9,344.7,233z"/>
	<path class="st0" d="M298.1,326c-21.6,0.2-43.3,0.1-64.9,0.1c-21.8,0-43.6,0.1-65.5-0.1c-3.5,0-4.6,0.9-4.5,4.5
		c0.2,12.5,0.2,25.1,0,37.6c0,3.3,0.5,4.8,4.4,4.7c43.6-0.2,87.3-0.1,130.9,0c3.6,0,4.6-1,4.5-4.6c-0.2-12.4-0.3-24.7,0-37.1
		C303.2,327.1,302.3,325.9,298.1,326z"/>
</g>
<g>
</g>
<g>
</g>
<g>
</g>
<g>
</g>
<g>
</g>
<g>
</g>
<g>
</g>
<g>
</g>
<g>
</g>
<g>
</g>
<g>
</g>
<g>
</g>
<g>
</g>
<g>
</g>
<g>
</g>
</svg>
