<?xml version="1.0" encoding="utf-8"?>
<!-- Generator: Adobe Illustrator 23.0.0, SVG Export Plug-In . SVG Version: 6.00 Build 0)  -->
<svg version="1.1" id="레이어_1" xmlns="http://www.w3.org/2000/svg" xmlns:xlink="http://www.w3.org/1999/xlink" x="0px"
	 y="0px" viewBox="0 0 512 512" style="enable-background:new 0 0 512 512;" xml:space="preserve">
<style type="text/css">
	.st0{fill:none;stroke:#000000;stroke-width:24;stroke-miterlimit:10;}
	.st1{fill:#F1F1F1;}
	.st2{fill:#ECECEC;}
</style>
<path class="st0" d="M13,135.6c2.4-5.7,6.9-7.6,13-7.6c115,0.1,230,0.1,345.1,0.1c9.7,0,12.9,3.2,12.9,12.9c0,115,0,230,0.1,345.1
	c0,6.1-1.8,10.5-7.6,13c-118.6,0-237.3,0-355.9,0c-4.4-0.6-6.9-3.1-7.5-7.5C13,372.9,13,254.2,13,135.6z"/>
<path d="M513,390c-2.5,6.2-6.9,8.3-13.6,8.2c-18.8-0.4-37.6-0.1-56.5-0.2c-7.6,0-12.1-3.9-12.2-10.2c-0.1-6.5,4.6-10.6,12.3-10.7
	c14.7-0.1,29.3-0.2,44,0.1c4,0.1,5.2-0.8,5.2-5c-0.1-115.1-0.1-230.2,0-345.3c0-3.7-0.6-5-4.7-5c-115.3,0.1-230.6,0.1-345.8,0
	c-4.2,0-4.7,1.4-4.7,5c0.2,18.2,0.1,36.3,0.1,54.5c0,7.1-3,11.6-8.2,12.6c-7,1.4-12.6-3.2-12.7-11c-0.2-10.3,0-20.7,0-31
	c0-12.3,0.3-24.7-0.1-37c-0.3-7.3,2.4-11.7,9.2-14c127,0,254,0,381,0c4.2,0.5,6.5,2.8,7,7C513,135.3,513,262.7,513,390z"/>
<path class="st1" d="M1,505c1.7,3.6,4.4,6.3,8,8C1,513,1,513,1,505z"/>
<path class="st2" d="M513,8c-1.5-3.1-3.7-5.6-7-7C513,1,513,1,513,8z"/>
<g>
</g>
<g>
</g>
<g>
</g>
<g>
</g>
<g>
</g>
<g>
</g>
<g>
</g>
<g>
</g>
<g>
</g>
<g>
</g>
<g>
</g>
<g>
</g>
<g>
</g>
<g>
</g>
<g>
</g>
</svg>
