<?xml version="1.0" encoding="utf-8"?>
<!-- Generator: Adobe Illustrator 23.0.0, SVG Export Plug-In . SVG Version: 6.00 Build 0)  -->
<svg version="1.1" id="레이어_1" xmlns="http://www.w3.org/2000/svg" xmlns:xlink="http://www.w3.org/1999/xlink" x="0px"
	 y="0px" viewBox="0 0 512 512" style="enable-background:new 0 0 512 512;" xml:space="preserve">
<style type="text/css">
	.st0{fill:#64B2FF;}
	.st1{fill:#1C7BFF;}
	.st2{fill:#489BFF;}
</style>
<path class="st0" d="M512,16.5c-3.4,6.4-3.9,13.6-5.5,20.4c-9.2,39-18.1,78.1-27.1,117.2c-14.4,62.5-28.7,125-43.1,187.6
	c-9.6,41.5-19.1,83-28.8,124.5c-2.9,12.3-15.1,17-25,9.3c-14.4-11.2-28.3-23-42.5-34.5c-14.1-11.5-28.3-23.1-42.4-34.6
	c-0.9-0.8-1.8-1.5-3.1-1.5c-8.3-5.7-15.8-12.6-23.6-18.9c-23.5-19.1-46.9-38.3-70.3-57.6c-1.1-3.1,1.5-4.5,3.1-6.2
	c16.4-16.5,32.8-33,49.3-49.4c15.3-15.3,30.8-30.3,45.7-45.9c42.2-44,86.2-86.2,128.6-130.1c25.4-26.3,51.5-51.8,77.1-78
	c1.3-1.3,2.5-2.6,3.6-4.1c1.1-1.1,2.1-2.3,3.8-1.1C512,14.5,512,15.5,512,16.5z"/>
<path class="st0" d="M1,168c3.9-7.4,10.7-10,18.3-12.2c40.4-11.5,80.7-23.4,121.1-35.1c45.6-13.3,91.2-26.5,136.8-39.8
	c40.7-11.8,81.3-23.7,122-35.5c35.1-10.2,70.2-20.4,105.3-30.5c1.5-0.4,3-1.9,4.6-0.2c-6,5.9-13.9,9-21.1,13
	c-26.4,14.8-52.9,29.6-79.3,44.4c-29.5,16.5-59,33-88.5,49.6c-38.2,21.4-76.4,42.8-114.6,64.2c-38.1,21.3-76.1,42.6-114.2,63.9
	c-1.3,0.7-2.5,1.7-4.2,1.2C60.9,229.6,34.7,208,8.3,186.6c-3-2.5-5-5.7-7.3-8.6C1,174.7,1,171.3,1,168z"/>
<path class="st1" d="M87.2,251.1c19-10.7,37.9-21.5,56.9-32.2c46.1-25.9,92.3-51.8,138.5-77.6c43.3-24.2,86.6-48.4,129.8-72.6
	c31.4-17.5,62.7-35.2,94.1-52.7c0.9-0.5,1.8-0.9,2.7-1.3c0.3,0.1,0.6,0.1,0.9,0.1c-1.2,1.4-2.2,2.9-3.5,4.1
	c-22.7,22.8-45.4,45.5-68,68.3c-40.9,41.2-81.9,82.5-122.8,123.8c-37,37.4-74.1,74.7-111.1,112.1c-1.3,1.4-3.4,2.3-3.4,4.7
	c0.3,2.4-0.7,4.6-1.5,6.8c-16.2,48.1-32.8,96-49.1,144c-2.5,7.5-4.2,15.4-8.6,22.2c-3.6-7.5-4.2-15.8-6-23.8
	C119.7,401.7,103.5,326.4,87.2,251.1z"/>
<path class="st2" d="M142,500.8c3.5-13.9,9-27,13.5-40.5c10.6-31.8,21.5-63.4,32.4-95.1c3.8-11.1,7.6-22.3,11.4-33.4
	c0.5-1.4,0.5-3,1.9-3.9c8.1,5,14.9,11.6,22.2,17.6c22.9,18.5,45.6,37.2,68.3,55.9c1.2,1,3.1,1.6,3.2,3.6
	c-49.5,31.2-99,62.4-148.6,93.6C144.9,499.4,143.4,500,142,500.8z"/>
<g>
</g>
<g>
</g>
<g>
</g>
<g>
</g>
<g>
</g>
<g>
</g>
<g>
</g>
<g>
</g>
<g>
</g>
<g>
</g>
<g>
</g>
<g>
</g>
<g>
</g>
<g>
</g>
<g>
</g>
</svg>
