<?xml version="1.0" encoding="utf-8"?>
<!-- Generator: Adobe Illustrator 23.0.0, SVG Export Plug-In . SVG Version: 6.00 Build 0)  -->
<svg version="1.1" id="레이어_1" xmlns="http://www.w3.org/2000/svg" xmlns:xlink="http://www.w3.org/1999/xlink" x="0px"
	 y="0px" viewBox="0 0 512 512" style="enable-background:new 0 0 512 512;" xml:space="preserve">
<path d="M242,1c10.3,0,20.7,0,31,0c2.9,0.4,5.9,1,8.8,1.1c12,0.5,18.3,6.7,17.6,18.6c-0.1,1.3,0.1,2.7,0.1,4
	c1.8,29.5,26.2,52.5,55.7,52.3c16.4-0.1,30.4-6.1,42.1-17.6c6.3-6.2,13.8-6.8,20.2-1.7c14.9,11.9,28.2,25.4,40,40.4
	c4,5.1,4.3,10.8,1.1,16.3c-1.6,2.8-4.2,5.1-6.5,7.6c-26.1,28.6-15,76.2,21.3,89.7c6.6,2.5,13.8,3.4,20.9,4.2
	c11.2,1.3,16.5,6.3,17.5,17.3c0.3,3,0.8,5.9,1.1,8.8c0,10.3,0,20.7,0,31c-0.6,4.6-1.2,9.2-1.8,13.8c-1.1,7.3-6.7,12.2-14,12.5
	c-3.3,0.1-6.6,0.3-10,0.6c-30.4,2.7-53.4,30.5-50.5,61c1.4,14.4,7.6,26.3,17.7,36.5c6.9,6.9,7.3,14.7,0.6,21.7
	c-12.6,13-25.6,25.6-38.6,38.2c-4.8,4.7-10.8,5.3-16.6,2.3c-3.2-1.6-5.7-4.5-8.4-6.9c-21.4-19.1-56-18.5-76.4,1.4
	c-11.6,11.2-17,25-17.5,41.1c-0.4,11.4-5.3,16-16.7,16.9c-3,0.2-5.9,0.7-8.8,1.1c-10.3,0-20.7,0-31,0c-2.4-0.4-4.9-1-7.3-1.1
	c-13.5-0.4-19.8-5.9-19.1-19.7c0-1,0-2-0.1-3c-1.8-29.5-26.2-52.5-55.7-52.3c-16.2,0.1-30.1,6-41.7,17.4c-6.7,6.6-14,7.2-20.6,2
	c-14.9-11.9-28.1-25.5-40-40.4c-3.9-5-4.3-11.8-0.8-16.8c1.8-2.6,4.1-4.8,6.2-7.1c21.4-23.4,18.2-61.8-6.7-81.4
	c-10-7.9-21.3-12.1-34-12.5C8.3,297.6,2.8,292,2,279.4c-0.2-2.5-0.7-4.9-1-7.4c0-10.3,0-20.7,0-31c0.6-4.4,1.1-8.9,1.8-13.3
	c1.3-8.3,5.6-12.3,13.9-12.9c3-0.2,6-0.4,9-0.7c31.2-3.8,54.4-28.6,51.4-61.1c-1.3-14.4-7.7-26.3-17.8-36.4
	c-6.2-6.2-6.6-13.7-1.5-20.2c12-15,25.7-28.4,40.8-40.3c5.8-4.5,13.2-4.1,18.7,0.8c1.8,1.5,3.4,3.2,5.2,4.7
	c21.6,19.3,56.2,18.6,76.8-1.7C211,48.4,216.1,34.3,216.6,18c0.3-10,5.2-14.7,15.1-15.8C235.1,1.9,238.6,1.4,242,1z M336,381.2
	c-1-1.1-2-2.3-3-3.3c-19.5-19.6-39.2-39.1-58.6-58.8c-2.5-2.6-4.5-2.7-7.7-1.6c-22.6,8.1-45.1,7.5-67.2-2.1
	c-38.6-16.7-61.6-59.7-51.8-102.9c1.1-4.8,2.4-9.1,7.6-10.7c5.3-1.7,8.8,1.4,12.2,4.8c12.5,12.5,25.1,24.9,37.5,37.4
	c3.1,3.1,6.4,4.5,10.7,3.8c8.5-1.4,17.1-2.7,25.7-3.9c3.3-0.5,5.1-1.9,5.5-5.3c1.2-8.7,2.6-17.4,4-26.1c0.7-4.3-0.6-7.5-3.8-10.7
	c-13.1-12.8-26-25.9-38.8-39c-6.4-6.5-4.3-15.7,4.2-17.5c7.9-1.7,16.1-3.2,24.2-3.1c62.7,1,105.2,62.6,83.8,121.4
	c-1.2,3.4-0.6,5.3,1.8,7.7c14.1,13.9,28.1,28,42.1,42c6.2,6.2,12.5,12.5,18.7,18.8c32.1-49.5,30.7-129.4-23.8-181.1
	c-59.3-56.2-146.4-55.7-205.7,0.4C99.4,203,94.6,292.6,143.2,350.9C194.2,412.1,279,418.9,336,381.2z"/>
</svg>
