<?xml version="1.0" encoding="utf-8"?>
<!-- Generator: Adobe Illustrator 23.0.0, SVG Export Plug-In . SVG Version: 6.00 Build 0)  -->
<svg version="1.1" id="레이어_1" xmlns="http://www.w3.org/2000/svg" xmlns:xlink="http://www.w3.org/1999/xlink" x="0px"
	 y="0px" viewBox="0 0 512 512" style="enable-background:new 0 0 512 512;" xml:space="preserve">
<style type="text/css">
	.st0{fill:#E6E6E6;}
	.st1{fill:#B3B3B3;}
	.st2{fill:#FFFFFF;}
	.st3{fill:#CCCCCC;}
</style>
<path class="st0" d="M256.7,58.8c0-19.3,0-38.6,0.1-57.8c0.3,0,0.7,0,1,0c6.5,7.8,14.8,13.7,22.3,20.4
	c30.2,26.7,60.5,53.2,90.8,79.7c1.9,1.7,3.4,2.6,0.5,5.1c-37.4,32.6-74.6,65.4-111.9,98.1c-0.6,0.5-1.3,0.9-2.8,2
	c0-19.7,0-38.6,0-57.4c-1.6-2-1.6-4.3-1.6-6.7c0-25.6,0-51.2,0-76.9C255.2,63.2,255.1,60.8,256.7,58.8z"/>
<path class="st1" d="M256.9,454.7c0,19.3,0,38.6-0.1,57.9c-0.3,0-0.7,0-1,0c-6.5-7.8-14.8-13.7-22.3-20.4
	c-30.2-26.7-60.5-53.2-90.8-79.7c-2-1.7-3.3-2.6-0.4-5.1c37.4-32.6,74.6-65.4,111.9-98.1c0.6-0.5,1.3-0.9,2.7-2
	c0,19.7,0,38.6,0,57.4c1.6,2,1.5,4.3,1.5,6.6c0,25.6,0,51.2,0,76.8C258.4,450.4,258.5,452.8,256.9,454.7z"/>
<path class="st2" d="M256.7,58.8c0,30.1,0,60.1,0,90.2c-51.2-1-97.6,39.6-103.9,90.8c-3.6,29.2,3.7,55.3,21.3,78.8
	c5.7,7.5,5.6,7.6-1.1,14.3c-18,18-36,36-54,54c-1.6,1.6-2.5,3.2-4.9,0.4c-19.7-23.2-35.5-48.6-44-78c-7.9-27.4-10.3-55.1-6.1-83.4
	c5.3-35.9,19.4-68,42.5-95.9c23-27.8,51.5-47.9,85.6-59.9C213.1,62.7,234.6,59.1,256.7,58.8z"/>
<path class="st3" d="M256.9,454.7c0-30,0-60.1,0-90.1c60.3,0.3,109.1-52,104.6-112.3c-1.7-22.8-10.3-42.9-24.6-60.5
	c-2.8-3.5-2.3-5.4,0.7-8.4c19.9-19.7,39.6-39.5,59.6-59.5c11.3,13,21.7,26.4,29.9,41.3c17.2,31.3,25.6,64.9,24.4,100.6
	c-1.3,39.6-13.5,75.7-36.9,107.8c-25.1,34.6-58.2,58.5-98.8,71.8C296.7,451.7,277,454.7,256.9,454.7z"/>
<g>
</g>
<g>
</g>
<g>
</g>
<g>
</g>
<g>
</g>
<g>
</g>
<g>
</g>
<g>
</g>
<g>
</g>
<g>
</g>
<g>
</g>
<g>
</g>
<g>
</g>
<g>
</g>
<g>
</g>
</svg>
