<?xml version="1.0" encoding="utf-8"?>
<!-- Generator: Adobe Illustrator 23.0.0, SVG Export Plug-In . SVG Version: 6.00 Build 0)  -->
<svg version="1.1" id="레이어_1" xmlns="http://www.w3.org/2000/svg" xmlns:xlink="http://www.w3.org/1999/xlink" x="0px"
	 y="0px" viewBox="0 0 512 512" style="enable-background:new 0 0 512 512;" xml:space="preserve">
<style type="text/css">
	.st0{fill:#FFFFFF;}
</style>
<path class="st0" d="M497,290.3c0,52.5,0,105,0,157.5c0,23.2-14,41.7-35.9,47.7c-7.8,2.2-15.9,1.5-23.8,1.6
	c-5.5,0.1-11-0.2-16.5,0.1c-3.1,0.2-3.9-0.7-3.9-3.8c0.2-14,0.1-28,0.1-42c0-31.8,0-63.7,0-95.5c0-30.4-20.4-50.8-50.7-50.8
	c-72.8,0-145.6,0-218.5,0c-30.4,0-50.8,20.4-50.8,50.6c0,45.2-0.1,90.3,0.1,135.5c0,5.3-1.5,6.3-6.3,6c-11.5-0.7-23,0.9-34.4-1
	c-21.9-3.7-38.7-23-39.4-45.2c0-1.3-0.1-2.7-0.1-4c0-126.6,0-253.3,0-379.9c0-23.9,14-42.6,36.2-48.4C57.6,17.4,62,17,66.5,17
	c30,0,60,0.1,90-0.1c3.8,0,4.6,0.9,4.6,4.6c-0.1,40.3-0.1,80.7-0.1,121c0,21.3,13.3,34.5,34.7,34.5c41,0,82,0,123,0
	c21,0,34.3-13.3,34.4-34.3c0-40.3,0.1-80.7-0.1-121c0-4,1.1-4.9,4.9-4.8c8.8,0.3,17.7,0.1,26.5,0.1c4.9,0,9.1,1.7,12.5,5.2
	c31.7,31.7,63.4,63.4,95.1,95.1c3.9,3.9,5.1,8.7,5.1,14.1C497,184.3,497,237.3,497,290.3z"/>
<path class="st0" d="M256.5,497c-41,0-82,0-123,0.1c-3.6,0-4.7-0.6-4.7-4.5c0.2-46,0.1-92,0.1-138c0-11.2,6.5-17.6,17.7-17.6
	c73.5,0,147,0,220.4,0c11.5,0,17.8,6.4,17.8,18c0,45.8,0,91.6,0.1,137.5c0,3.7-0.8,4.6-4.6,4.6C339.2,496.9,297.9,497,256.5,497z"/>
<path class="st0" d="M321,81c0,20-0.1,40,0.1,60c0,3.3-0.8,4.1-4.1,4.1c-40-0.1-80-0.1-120,0c-3.3,0-4.1-0.8-4.1-4.1
	c0.1-40,0.1-80,0-120c0-3.3,0.8-4.1,4.1-4.1c40,0.1,80,0.1,120,0c3.3,0,4.1,0.8,4.1,4.1C320.9,41,321,61,321,81z"/>
<g>
</g>
<g>
</g>
<g>
</g>
<g>
</g>
<g>
</g>
<g>
</g>
<g>
</g>
<g>
</g>
<g>
</g>
<g>
</g>
<g>
</g>
<g>
</g>
<g>
</g>
<g>
</g>
<g>
</g>
</svg>
