<?xml version="1.0" encoding="utf-8"?>
<!-- Generator: Adobe Illustrator 23.0.0, SVG Export Plug-In . SVG Version: 6.00 Build 0)  -->
<svg version="1.1" id="레이어_1" xmlns="http://www.w3.org/2000/svg" xmlns:xlink="http://www.w3.org/1999/xlink" x="0px"
	 y="0px" viewBox="0 0 512 512" style="enable-background:new 0 0 512 512;" xml:space="preserve">
<style type="text/css">
	.st0{fill:#489BFF;}
	.st1{fill:#FBC3AD;}
	.st2{fill:#1C7BFF;}
	.st3{fill:#F1AC96;}
	.st4{fill:#0074FF;}
	.st5{fill:#F1AC97;}
	.st6{fill:#FEFEFE;}
	.st7{fill:#FED1BF;}
	.st8{fill:#5D9BF6;}
</style>
<path class="st0" d="M260.1,269.7c-33.2-24-53.1-56.1-57.2-97c-7-70.1,38.1-131.4,107.4-146.2c23.5-5,46.9-3.5,69.8,4.4
	c17,13.1,30.6,29.1,39.7,48.6c17.7,37.9,19,76.3,1.6,114.5c-20.7,45.6-56.7,71.9-106,79.9C296.7,276.9,278.2,275.4,260.1,269.7z"/>
<path class="st1" d="M299.1,360.1c1.3,1.6,3.1,0.9,4.7,0.9c12.3,0.1,24.6-0.1,37,0.1c7.3,0.1,13.3-2.5,18.3-7.6
	c22.8-22.9,45.7-45.7,68.6-68.5c12.3-12.3,29.7-10.8,40.3,3.1c-0.3,8.5-4.4,15-10.3,20.9c-39.3,39.1-78.4,78.4-117.7,117.6
	c-13.7,13.7-30.6,20.7-49.9,20.8c-51.3,0.3-102.6,0.1-153.9,0c-2.8,0-6.2,1-8.1-2.4c-0.6-1.6-0.6-3.3-0.6-4.9c0-24.2,0-48.3,0-72.5
	c0-2.3-0.3-4.7,1.7-6.5c0.8,0,1.7-0.2,2.5,0c10.8,2.6,17.3-3.7,23.6-10.9c10.9-12.6,22.7-24.4,35-35.5c8.7-7.9,19.8-11.9,31.8-12.7
	c21.9-1.6,43.9-0.5,65.8-0.7c11.2-0.1,21.4,2.9,28.2,12.8c3.6,14.4-1,25.8-12.7,34.5c-4.8,3.6-10.4,5-16.4,5
	c-12.6,0-25.3-0.1-37.9,0.1c-2.9,0-7.6-1.1-7.5,3.3c0.1,3.9,4.7,2.7,7.4,2.7c15.6,0,31.2,0.4,46.9-0.2
	C297,359.2,298.1,359.1,299.1,360.1z"/>
<path class="st2" d="M260.1,269.7c5.8-0.7,11.2,1.7,16.8,2.6c23,3.6,45.3,1.1,67-6.9c21.1-7.7,39.3-20.2,54.1-37.1
	c17-19.4,27.8-41.8,32.1-67.4c5-30.2,0.1-58.7-14-85.7c-8.6-16.4-20.3-30.2-34.8-41.7c-0.7-0.6-2.5-1-1.2-2.6
	c22.8,7.1,41.9,20.1,57.7,37.8c25.2,28.4,36.7,61.9,34.1,99.6c-4.2,61.1-48.5,110.2-106.3,122.5c-36.7,7.8-71,1.1-102.6-19.1
	C261.9,271.2,261,270.4,260.1,269.7z"/>
<path class="st3" d="M129.2,446c54.1,0,108.2,0.3,162.3-0.1c17.7-0.1,33.6-6.6,46.2-19.2c40.2-39.9,80.1-80,120.1-120
	c4.5-4.5,8.1-9.2,8.2-15.9c0-1.3,0.7-2.2,1.9-2.7c7.6,11.1,5.9,23.4-4.8,34.1c-27.7,27.7-55.3,55.4-83.1,83
	c-12.6,12.6-24.8,25.5-38.1,37.5c-13.6,12.3-29.9,17.9-47.9,18c-55,0.3-109.9,0.1-164.9,0.1C126.5,455.9,126.5,450.9,129.2,446z"/>
<path class="st0" d="M41.9,450c0-36.1-0.1-72.2-0.1-108.3c0-5.9,3.1-9.1,8.9-10.1c0.7-0.1,1.3-0.3,2-0.3c18.8,0,37.6,0,56.4-0.1
	c0,0.7-0.3,1.2-0.9,1.5c-3.4,1.3-6.9,0.7-10.4,0.8c-6.7,0.1-7.1,0.4-7.2,7c-0.1,13,0,26,0,38.9c0,18.6,0,37.3,0,55.9
	c0,2.7,0.1,5.3-0.8,7.9c-1.7,4.6-4.8,7.8-9.8,8c-11.5,0.5-23,0.3-34.4,0.1C44.2,451.4,42.8,451.1,41.9,450z"/>
<path class="st4" d="M109,332c0-0.3,0.1-0.5,0-0.8c13.8-0.8,21.4-0.9,20,18.4c-0.3,3.8,0.1,7.6,0.1,11.4c0,28.3,0,56.6,0,85
	c0,5,0,9.9,0,14.9c-0.1,5.6-0.1,11.3-0.1,16.9c0,9.2-3.2,12.5-12.6,12.5c-18.6,0.1-37.2,0-55.8,0c-3.3,0-6.7,0-10-0.3
	c-4.8-0.4-7.9-3-8.7-8c-0.9-2.4-0.4-4.9-0.4-7.4c-0.1-5.6,0.4-6.2,6.2-6.2c15.3-0.1,30.6,0,46-0.1c11.3,0,13.6-2.4,13.6-13.9
	c0-38,0-75.9,0-113.9C107.4,337.7,106.9,334.6,109,332z"/>
<path class="st2" d="M109,332c0,41.8,0,83.6,0,125.5c0,9.1-3.4,12.5-12.6,12.5c-16.2,0-32.3,0.1-48.5-0.1c-4.4-0.1-6.6,0.9-5.9,5.7
	c0.3,2.1,0,4.3,0,6.5c-1.7-3.8-0.9-7.9-0.7-11.8c0.3-6.8-0.8-13.6,0.6-20.4c11.8,0,23.7,0,35.5,0c7.8,0,11.6-3.7,11.6-11.6
	c0-33.5,0.1-67-0.1-100.5c0-4.8,1.3-6.5,6.1-6C99.6,332.3,104.3,332,109,332z"/>
<path class="st5" d="M299.1,360.1c-2.9,0.8-5.9,1-8.9,1c-14.5-0.1-29,0-43.5,0c-3.4,0-7.8,0.7-7.6-4.6c0.2-5,4.5-4.4,8-4.4
	c13.3,0,26.6,0,40,0c17.8,0,31.6-16.9,28.3-34.4c-0.3-1.3-0.6-2.6,0.7-3.6C329.4,332.2,317.9,356.3,299.1,360.1z"/>
<path class="st6" d="M289.6,135c6,0,12-0.3,18,0.1c4.2,0.2,5.7-0.7,5.6-5.3c-0.4-12.3-0.3-24.7-0.1-37c0.2-11.5,7.9-21,18.9-23.4
	c10.5-2.3,21.4,2.9,26.3,12.7c1.9,3.8,2.6,7.8,2.6,12.1c0,12.2,0.1,24.3-0.1,36.5c-0.1,3.5,1,4.5,4.5,4.4c12-0.2,24-0.1,36-0.1
	C416.4,135,427,145,427,159c-0.1,13.8-10.9,23.8-26,23.8c-12,0-24,0.1-36-0.1c-3.3-0.1-4.2,1-4.2,4.2c0.2,12.2,0.1,24.3,0.1,36.5
	c-0.1,14.5-10.3,25.4-23.9,25.4c-13.5,0-23.9-10.9-23.9-25.4c-0.1-11.5-0.2-23,0.1-34.5c0.1-4.8-0.8-6.6-6.1-6.4
	c-12,0.5-24,0.3-36,0.1c-11.4-0.2-20.3-7.2-23.2-17.8c-2.8-10.1,1.4-20.7,10.5-26.4c4.1-2.5,8.5-3.7,13.3-3.6
	C277.6,135,283.6,135,289.6,135z"/>
<path class="st7" d="M278,330.9c0-4.5,0.1-9,0-13.5c-0.1-4.1,2.4-5.3,5.7-5.3c21.5,0.1,23.8,18.6,17.6,30.4
	c-3.3,6.3-14.1,10-20.5,7.2c-2.1-0.9-2.8-2.6-2.7-4.9C278,340.2,278,335.5,278,330.9z"/>
<path class="st8" d="M50,399c0-12.2,0-24.3,0-36.5c0-2.9-0.2-6.3,3.8-6.2c3.5,0.1,4.2,3.1,4.2,6.3c0,24.3,0,48.6,0,72.9
	c0,1,0,2-0.3,2.9c-0.7,2-1.6,3.8-4.1,3.5c-2.5-0.3-3.6-1.8-3.6-4.5C50,424.6,50,411.8,50,399z"/>
<path class="st8" d="M50,343.9c-0.2-2.7,1.2-4.4,3.6-4.2c2.2,0.1,4.3,1.5,4.1,4.1c-0.2,2.1-1.1,4.3-3.9,4.2
	C51.4,347.8,49.7,346.6,50,343.9z"/>
<g>
</g>
<g>
</g>
<g>
</g>
<g>
</g>
<g>
</g>
<g>
</g>
<g>
</g>
<g>
</g>
<g>
</g>
<g>
</g>
<g>
</g>
<g>
</g>
<g>
</g>
<g>
</g>
<g>
</g>
</svg>
