<?xml version="1.0" encoding="utf-8"?>
<!-- Generator: Adobe Illustrator 23.0.0, SVG Export Plug-In . SVG Version: 6.00 Build 0)  -->
<svg version="1.1" id="레이어_1" xmlns="http://www.w3.org/2000/svg" xmlns:xlink="http://www.w3.org/1999/xlink" x="0px"
	 y="0px" viewBox="0 0 512 512" style="enable-background:new 0 0 512 512;" xml:space="preserve">
<style type="text/css">
	.st0{fill:#1C7BFF;}
	.st1{fill:#489BFF;}
</style>
<path class="st0" d="M101.9,353c119.9,0,239.8,0,359.8,0c9.3,0,11.3-2.1,11.3-11.5c0-70.8,0-141.6,0-212.4c7.7-0.1,15.3-0.2,23-0.1
	c6.3,0,9,2.8,9,9.2c0,25,0,50,0,75c0,53.8,0,107.6,0,161.4c0,8-2.4,10.4-10.4,10.4c-118.4,0-236.9,0-355.3,0.1c-4,0-7-1.1-9.7-3.9
	C120.4,371.7,111.1,362.4,101.9,353z"/>
<path class="st1" d="M474.6,135.8c0-2.3,0.2-4.7-1.6-6.6c-0.5-0.1-1-0.1-1.5-0.1c-111,0-222,0-333-0.1c-3.6,0-6.3,1.4-8.8,3.9
	c-8.2,8.3-16.5,16.5-24.7,24.8c-30.6,30.6-61.3,61.3-91.9,91.9c-5.2,5.2-5.6,9.2-1,13.8c29.9,29.9,59.9,59.8,89.8,89.7
	c2.9,1.8,6,1.6,9.2,1.6c43.5,0,87,0,130.5,0c73,0,146,0,218.9,0c10.7,0,14.1-3,14.1-12.9C474.7,273.1,474.6,204.4,474.6,135.8z
	 M142.6,285c-15.3,0.1-28.3-12.6-28.3-27.8c0-15.5,12.5-28.1,27.9-28.2c15.4-0.2,28,12.3,28.1,27.8C170.3,272.3,158,284.9,142.6,285
	z"/>
<g>
</g>
<g>
</g>
<g>
</g>
<g>
</g>
<g>
</g>
<g>
</g>
<g>
</g>
<g>
</g>
<g>
</g>
<g>
</g>
<g>
</g>
<g>
</g>
<g>
</g>
<g>
</g>
<g>
</g>
</svg>
