<?xml version="1.0" encoding="utf-8"?>
<!-- Generator: Adobe Illustrator 23.0.0, SVG Export Plug-In . SVG Version: 6.00 Build 0)  -->
<svg version="1.1" id="레이어_1" xmlns="http://www.w3.org/2000/svg" xmlns:xlink="http://www.w3.org/1999/xlink" x="0px"
	 y="0px" viewBox="0 0 512 512" style="enable-background:new 0 0 512 512;" xml:space="preserve">
<style type="text/css">
	.st0{fill:#FFFFFF;}
</style>
<path class="st0" d="M43,513c-8.8-4.1-11.2-11-11.1-20.5c1.7-92,71.9-173.7,162.3-188.6c11.7-1.9,23.4-2.9,35.3-2.9
	c20,0.1,40-0.6,60,0.2c77.2,2.9,133.7,39.5,170.6,106.7c14.5,26.4,20.8,55.2,22,85.2c0.4,9.4-2.5,16-11.1,20
	C328.3,513,185.7,513,43,513z"/>
<path class="st0" d="M270,1c7.6,2.2,15.4,2.8,23,4.9C355.8,23,398,84.4,391.3,149c-6.5,62.7-53.8,112-115.8,120.8
	c-75,10.6-145.2-44.5-152.6-119.8C115.5,76.1,167.4,11.2,241,2c0.8-0.1,1.7,0.1,2-1C252,1,261,1,270,1z"/>
<g>
</g>
<g>
</g>
<g>
</g>
<g>
</g>
<g>
</g>
<g>
</g>
<g>
</g>
<g>
</g>
<g>
</g>
<g>
</g>
<g>
</g>
<g>
</g>
<g>
</g>
<g>
</g>
<g>
</g>
</svg>
