<?xml version="1.0" encoding="utf-8"?>
<!-- Generator: Adobe Illustrator 23.0.0, SVG Export Plug-In . SVG Version: 6.00 Build 0)  -->
<svg version="1.1" id="레이어_1" xmlns="http://www.w3.org/2000/svg" xmlns:xlink="http://www.w3.org/1999/xlink" x="0px"
	 y="0px" viewBox="0 0 512 512" style="enable-background:new 0 0 512 512;" xml:space="preserve">
<style type="text/css">
	.st0{fill:#1C7BFF;}
	.st1{fill:#489BFF;}
	.st2{fill:#4293FE;}
</style>
<path class="st0" d="M383.9,511.8c-2.4,0.1-4.8,0.2-7.3,0.2c-108.6,0-217.1,0-325.7,0c-17.4,0-26.3-8.9-26.3-26.3
	c0.2-105.6,76.3-200.1,180.1-223.8c17.7-4,35.6-6.8,53.9-5.6c2.3,2.2,2.3,5.3,3,8c9.9,42.9,24.2,84.2,43.4,123.7
	c20.3,41.8,45.5,80.4,75.5,115.8C382.5,506.1,385.8,507.9,383.9,511.8z"/>
<path class="st1" d="M383.9,511.8c-5.6-9.9-13.8-17.8-20.7-26.7c-16.3-21-30.7-43.2-44-66.2c-20.5-35.7-36.2-73.6-48.3-112.9
	c-5-16.3-10-32.7-12.2-49.7c47.9,0,91.7,13.7,130.8,41.2c56.5,39.7,89.2,94.3,98.7,162.6c1.3,9.3,1.7,18.8,1.7,28.2
	c0.1,13.5-9.7,23.6-23.3,23.6C439.1,512.1,411.5,511.9,383.9,511.8z"/>
<path class="st1" d="M226.8,4.3C281.9-11.8,347,17.6,367.7,79.7c25.9,77.6-34.3,156.7-116.2,152.8c-1.8-2.7-2.2-5.9-2.8-9
	c-8.6-44.2-15-88.8-18.6-133.8c-2-25.6-2.7-51.2-4.1-76.8C225.9,10.1,225.8,7.2,226.8,4.3z"/>
<path class="st0" d="M226.8,4.3c1.3,1,1.4,2.4,1.5,3.9c0.5,14,0.7,28,1.5,42c1.2,22.6,3.1,45.1,5.3,67.6
	c3.7,37.4,9.9,74.3,16.8,111.2c0.2,1.1-0.2,2.3-0.3,3.5c-0.5,0-1,0-1.5,0c-2.4-1.1-5.2,0.1-7.6-0.9c-44.4-3.3-86.7-40.6-98.2-86.4
	C129.2,84.9,163.3,23.9,222.6,5.2C223.9,4.8,225.4,4.6,226.8,4.3z"/>
<path class="st2" d="M242.4,231.6c2.6-0.2,5.3-1,7.6,0.9C247.4,232.8,244.8,233.1,242.4,231.6z"/>
<g>
</g>
<g>
</g>
<g>
</g>
<g>
</g>
<g>
</g>
<g>
</g>
<g>
</g>
<g>
</g>
<g>
</g>
<g>
</g>
<g>
</g>
<g>
</g>
<g>
</g>
<g>
</g>
<g>
</g>
</svg>
