<?xml version="1.0" encoding="utf-8"?>
<!-- Generator: Adobe Illustrator 23.0.0, SVG Export Plug-In . SVG Version: 6.00 Build 0)  -->
<svg version="1.1" id="레이어_1" xmlns="http://www.w3.org/2000/svg" xmlns:xlink="http://www.w3.org/1999/xlink" x="0px"
	 y="0px" viewBox="0 0 512 512" style="enable-background:new 0 0 512 512;" xml:space="preserve">
<style type="text/css">
	.st0{fill:#ED404C;}
	.st1{fill:#FEF6EC;}
</style>
<path class="st0" d="M255.9,477.3c-69.6,0-139.2,0-208.8,0c-22.8,0-39-11.3-45.1-30.9c-4.2-13.4-1.4-25.6,5.5-37.5
	c22.5-38.8,44.9-77.6,67.3-116.5c47.3-82,94.6-164,142-245.9c13.6-23.5,39.3-31.1,61.5-18.2c7.8,4.5,13.2,11.4,17.6,19.1
	c58,100.5,116,201,174,301.4c12.1,21,24.5,41.7,36.2,62.9c14.6,26.5,0.9,57.7-28,64.5c-5.1,1.2-10.4,1-15.6,1
	C393.6,477.3,324.8,477.3,255.9,477.3z"/>
<path class="st1" d="M283.4,241.6c0,19,0.1,38,0,57c-0.1,16.9-10,26.2-27.6,26.2c-17,0-27-9.4-27-26c-0.1-38.5-0.1-76.9,0-115.4
	c0-16.4,10.1-25.8,27.2-25.8c17.2,0,27.3,9.3,27.4,25.6C283.5,202.7,283.4,222.2,283.4,241.6z"/>
<path class="st1" d="M283.4,391.5c-0.2,15.2-12.7,27.3-27.9,27c-15.1-0.3-26.9-12.9-26.6-28.3c0.3-14.9,12.7-26.9,27.5-26.7
	C271.7,363.8,283.5,376.1,283.4,391.5z"/>
<g>
</g>
<g>
</g>
<g>
</g>
<g>
</g>
<g>
</g>
<g>
</g>
<g>
</g>
<g>
</g>
<g>
</g>
<g>
</g>
<g>
</g>
<g>
</g>
<g>
</g>
<g>
</g>
<g>
</g>
</svg>
