<?xml version="1.0" encoding="utf-8"?>
<!-- Generator: Adobe Illustrator 23.0.0, SVG Export Plug-In . SVG Version: 6.00 Build 0)  -->
<svg version="1.1" id="레이어_1" xmlns="http://www.w3.org/2000/svg" xmlns:xlink="http://www.w3.org/1999/xlink" x="0px"
	 y="0px" viewBox="0 0 512 512" style="enable-background:new 0 0 512 512;" xml:space="preserve">
<style type="text/css">
	.st0{fill:#489BFF;}
	.st1{fill:#1C7BFF;}
	.st2{fill:#FEFEFE;}
	.st3{fill:#5993EF;}
	.st4{fill:#236AC4;}
	.st5{fill:#2369C4;}
	.st6{fill:#2169C4;}
	.st7{fill:#DFDFDF;}
</style>
<path class="st0" d="M513,237c0,2.3,0,4.7,0,7c-0.4,0.3-0.8,0.6-1.2,0.8c-1.4,0.3-2.6-0.2-3.7-1.1c-1-0.9-2-1.8-2.9-2.7
	C468,203.7,430,167.3,393,129.8c-3.6-3.6-6.1-8.3-11.2-10.4c-10.7-14.8-26.3-18.3-43.2-18.2c-23.9,0.1-46,8-67.7,17.2
	c-3.8,1.6-7.7,2-11.6,2.3c-6.4,1.4-12.9,0.5-19.4,1.4c-30.8,4.1-57.2,17.3-79.1,39.1c-14,13.9-23.9,30.6-30.6,49.2
	c-0.8,2.3-1.4,4.8-2.8,6.9c-1.1,1.7-0.6,3.2,0.1,4.7c0.6,3.5,3.6,5.1,5.6,7.5c1.4,1.6,3.2,2.9,3.8,5.1c0,3.1-2,5.2-3.5,7.5
	c-12.3,19.1-23.4,38.8-32.1,59.8c-6.9,16.8-9.5,34.6-9.9,52.7c-0.2,7.3,1.4,14.5,4,21.5c2.4,6.4,7,10.8,12.1,15
	c1.8,5,6.6,7.3,10.1,10.8c26.9,26.8,53.6,53.7,80.5,80.5c7.7,7.6,15.4,15.2,22.9,23c1.6,1.7,4.1,3.4,1.8,6.3
	c-19.3,0.2-37.3-5.6-55.1-12.1c-26.4-9.7-50.9-23.3-72.7-41.2c-27.3-22.4-49.9-48.8-66.3-80.3C17.8,357,9.4,335.2,4.5,312
	c-2.2-10.1-2.1-20.4-3-30.7C1.4,280.2,1.9,279,1,278c0-2.7,0-5.3,0-8c0.8-2.3,0.8-4.7,0-7c0-4,0-8,0-12c0.8-2.3,0.8-4.7,0-7
	c0-2.7,0-5.3,0-8c1.1-7,1-14.1,1.6-21.1c1.4-16.2,6.2-31.7,11.8-46.8c11-29.6,26.5-56.7,47.5-80.4c21.1-23.9,45.3-43.9,73.8-58.7
	C156.5,18.1,178.1,9.7,201,4.7c10.6-2.3,21.4-2.3,32.1-3.2c1.6-0.1,3.3,0.5,4.9-0.5c2,0,4,0,6,0c2.7,0.8,5.3,0.8,8,0
	c3.3,0,6.7,0,10,0c2.7,0.8,5.3,0.8,8,0c2,0,4,0,6,0c7.7,1,15.5,1,23.2,1.7c16.2,1.4,31.7,6.2,46.8,11.8
	c29.7,10.9,56.7,26.5,80.4,47.5c23.9,21.1,43.9,45.4,58.7,73.8c10.9,20.9,19.4,42.7,24.3,65.8c2.2,10.4,2.2,21.1,3.1,31.6
	C512.6,234.4,512.1,235.8,513,237z"/>
<path class="st1" d="M383.9,117.9c1.6,1.4,3.3,2.8,4.9,4.3c22.6,22.6,44.9,45.5,68,67.7c18.6,17.9,36.4,36.5,55.2,54.3
	c1.6,2.4-0.3,5.3,1.1,7.8c0,3,0,6,0,9c-0.8,2.7-0.8,5.3,0,8c0,3,0,6,0,9c-1,7.3-0.9,14.8-1.7,22.1c-1.7,17-6.8,33.2-12.8,49.1
	c-10.6,28-25.8,53.2-45.2,75.9c-19.6,23-42.7,41.8-68.9,56.8c-21.5,12.3-44.4,21.1-68.5,26.9c-11.2,2.7-22.7,2.7-34,3.7
	c-1.6,0.1-3.3-0.5-4.9,0.5c-3,0-6,0-9,0c-2.3-0.8-4.7-0.8-7,0c-2.3,0-4.7,0-7,0c-2.3-0.8-4.7-0.8-7,0c-3.3,0-6.7,0-10,0
	c-3.6-1.2-7.4,0-11.1-1c-1.1-0.3-2.3-0.1-2.9-1.3c-37.3-37.4-74.7-74.8-112-112.2c-1.8-1.8-3.4-3.7-5.1-5.5c1.2-1.7,2.9-1.5,4.5-0.9
	c16.6,6.5,32.8,2.7,48.9-1.8c10.4-2.9,20.5-6.8,30.1-11.8c4-2.1,8-2.4,12-0.7c17.5,7.4,35.5,12.3,54.6,12c0.8,0,1.6,0.3,2.5,0.3
	c35.8-1.7,67.4-13.7,93.2-39c11.3-11.1,20-24.4,26.8-38.9c2.6-5.6,1.9-6.9-4.1-6.9c-18.3,0-36.7,0-55-0.1c-4,0-6.7,1.6-9.4,4.6
	c-13.1,15.1-29.4,23.6-49.8,23c-2.7-0.1-5.2,1.3-7.9,0.8c-20.4-2.7-36.8-12.1-48.1-29.5c-4.9-7.5-7.5-15.9-8.9-24.7
	c-1.1-6.7,0.3-8.8,7-8.9c19-0.1,37.9-0.5,56.9,0.2c4.2-0.4,8.3-0.3,12.5-0.3c36.5,0,72.9,0,109.4,0c8.9,0,10.4-1.4,10.5-10.4
	c0.3-21.6-3.9-42.4-13.3-61.9c-2.9-6.1-3.1-11.2-0.6-17.5c5.1-12.5,8.7-25.5,9-39.2c0.1-6.1-0.5-11.9-2.7-17.6
	C383.2,122.1,381.8,119.9,383.9,117.9z"/>
<path class="st2" d="M513,237c-2.1-5.4-1.9-11.3-2.7-16.9C494.8,113.7,413.7,27.6,308.7,6.2c-9.9-2-20-3.6-30.1-4.2
	c-0.9-0.1-2.1,0.2-2.6-1c77.6,0,155.2,0,232.8-0.1c3.6,0,4.4,0.7,4.3,4.3C513,82.5,513,159.7,513,237z"/>
<path class="st3" d="M252,1c-2.7,1.3-5.3,1.6-8,0C246.7,1,249.3,1,252,1z"/>
<path class="st3" d="M270,1c-2.7,1.6-5.3,1.3-8,0C264.7,1,267.3,1,270,1z"/>
<path class="st4" d="M513,252c-1.6-2.4-0.8-5.2-1.1-7.8c0.4-0.1,0.7-0.1,1.1-0.2C513,246.7,513,249.3,513,252z"/>
<path class="st5" d="M513,269c-1.5-2.7-1.4-5.3,0-8C513,263.7,513,266.3,513,269z"/>
<path class="st3" d="M1,244c1.6,2.3,1.3,4.7,0,7C1,248.7,1,246.3,1,244z"/>
<path class="st3" d="M1,263c1.3,2.3,1.6,4.7,0,7C1,267.7,1,265.3,1,263z"/>
<path class="st6" d="M247,513c2.3-1.4,4.7-1.4,7,0C251.7,513,249.3,513,247,513z"/>
<path class="st5" d="M261,513c2.3-1.4,4.7-1.4,7,0C265.7,513,263.3,513,261,513z"/>
<path class="st2" d="M259,272.9c-19.1,0.1-38.3,0.3-57.4,0.1c-4.3,0-4.7,1.3-4.2,5.1c4.8,29.9,25.3,49.6,55.6,53.2
	c1.1,0.4,2.3,0.3,3.5,0.3c3.2-0.2,4.5,1.6,4.7,4.5c0.3,3.8,0.2,7.7,0.2,11.5c0,12.5,0.1,25-0.1,37.5c0,2.5,0.6,5.5-2.3,7.2
	c-19.8,0.9-38.7-3.4-56.7-11.4c-4.4-2-8-1.8-12.2,0.3c-16.3,8.1-33.4,13.8-51.5,16.4c-11.3,1.6-22.1-0.3-32.6-4.3
	c-4.3-4.3-9.2-8.1-11.8-13.9c-5-11.1-5.7-22.7-4.7-34.7c2-25.7,10.4-49.2,23-71.5c7.4-13.2,15.2-26.1,23.3-38.9
	c-1-1.9-0.2-3.6,0.9-5.1c9.6-13.8,19.9-27,31.2-39.4c4.9-5.4,9.1-11.5,15.2-15.7c-19.1,13.2-35.6,29.4-51.9,45.8
	c-1.7,1.7-3.2,4-6.2,3.4c-0.6-5.5,1.7-10.3,3.6-15.1c19.2-47.9,54.3-76.9,104.7-87.3c8.5-1.8,17.2-2.1,25.8-1.8
	c2,0.9,2.2,2.8,2.2,4.7c0.3,17.1,0.3,34.3,0,51.4c0,1.2-0.3,2.3-0.8,3.4c-0.9,2.8-3.4,2.8-5.7,3.1c-12.4,1.7-24,5.2-33.9,13.3
	c-10.6,8.7-16.9,19.9-20.1,33c-1.1,4.5,0.2,5.9,5.2,5.9c15.5,0.1,30.9,0,46.4,0.1c2.9,0,6.1-0.6,8.1,2.7c1.8,11.1,0.9,22.2,0.6,33.2
	C261,271,260,272,259,272.9z"/>
<path class="st7" d="M259,179c0-20,0-40.1,0-60.1c10.8-0.9,19.8-7,29.9-10.2c16-5.1,32-10,48.9-10c14.3,0,28.2,1.9,39.5,11.9
	c2.5,2.2,4.4,4.9,6.6,7.3c9,16.7,5.2,33.6,0.6,50.4c-1.9,7-6.8,13.8-6.7,20.6c0.1,6.6,5.1,13,7.5,19.7c7,19.7,10.2,39.8,7.8,60.8
	c-0.3,2.2-0.2,3.7-3.2,3.7c-43.6-0.1-87.3-0.2-130.9-0.2c0-12.4,0-24.7,0-37.1c0.7-3.9,3.9-3,6.3-3c13.8-0.2,27.6-0.1,41.4-0.1
	c10.4,0,10.9-0.5,8.1-10.3c-5.7-20.1-19.8-31.7-39-37.8c-3.8-1.2-7.7-2.1-11.7-2.3C261.8,182.1,259.7,181.5,259,179z"/>
<path class="st1" d="M124.9,223c17.5-17.8,34.7-35.9,55.6-49.8c4.7-3.1,5.8-3.6,10.2-4.1c-20.8,20.2-38.8,41.8-54.9,65
	C131.2,231.3,127.3,227.8,124.9,223z"/>
<path class="st7" d="M259,392.1c0-17.5-0.1-35,0.1-52.4c0.1-4.7-0.5-8.1-6-8.5c17.7,0.7,33.9-3.5,47.7-15.1c2.8-2.4,5.8-4.7,7.6-7.8
	c2.7-4.8,6.6-5.4,11.6-5.4c20.3,0.2,40.6,0.1,60.9,0.1c2.3,0,4.8-0.7,3,3.4c-15.4,35.6-39.9,62.1-76.6,76.1
	c-15.1,5.8-30.7,9.4-47,10C259.9,392.6,259.4,392.3,259,392.1z"/>
<path class="st1" d="M259,179c14.1,1.4,27.3,5,38.8,14c12.6,9.9,19.3,22.8,21.5,38.5c0.5,3.5-0.6,3.8-3.4,3.8
	c-17.2-0.1-34.3-0.1-51.5-0.1c-1.8,0-3.7-0.5-5.4,0.5c-19.1,0-38.2-0.2-57.3,0c-4,0-5-0.8-4.2-5C202.3,204.2,222.7,179.8,259,179z"
	/>
<path class="st1" d="M127.5,300.5c5.9,15.7,13.5,29.5,23.7,41.8c10,12.2,22,22.2,36,31c-17.8,8.7-34.9,16.6-54.5,12.7
	c-13.3-2.6-21.3-12.7-21.6-26.2c-0.4-15.3,4-29.6,9.6-43.6C122.6,311.2,124.9,306.2,127.5,300.5z"/>
<path class="st1" d="M307,127.8c14.6-6.6,28.5-11.9,43.8-11.8c17.5,0.2,32.1,12.9,30.6,32.3c-0.9,11.7-3.7,22.7-8.5,34.1
	C356.4,157.2,334.9,139.3,307,127.8z"/>
<g>
</g>
<g>
</g>
<g>
</g>
<g>
</g>
<g>
</g>
<g>
</g>
<g>
</g>
<g>
</g>
<g>
</g>
<g>
</g>
<g>
</g>
<g>
</g>
<g>
</g>
<g>
</g>
<g>
</g>
</svg>
