<?xml version="1.0" encoding="utf-8"?>
<!-- Generator: Adobe Illustrator 23.0.0, SVG Export Plug-In . SVG Version: 6.00 Build 0)  -->
<svg version="1.1" id="레이어_1" xmlns="http://www.w3.org/2000/svg" xmlns:xlink="http://www.w3.org/1999/xlink" x="0px"
	 y="0px" viewBox="0 0 512 512" style="enable-background:new 0 0 512 512;" xml:space="preserve">
<style type="text/css">
	.st0{fill:#FFFFFF;}
</style>
<path d="M491.5,193.3c0.1,1.9,0.2,3.5,0.2,5.1c0,81.1,0,162.3,0,243.4c0,24.6-14.4,43.4-37.1,48.6c-4.3,1-8.9,1.3-13.4,1.3
	c-122.8,0.1-245.6,0.1-368.4,0c-25.1,0-43.9-14.1-49.2-37c-0.9-4-1.3-8.2-1.3-12.4c-0.1-81.5-0.1-162.9-0.1-244.4c0-1.5,0-2.9,0-4.7
	C178.9,193.3,335.1,193.3,491.5,193.3z"/>
<path d="M23,149.9c-0.3-0.5-0.5-0.6-0.5-0.8c0-28-0.9-56,0.4-83.9C24,42,42.1,25.2,65.3,22.6c2.1-0.2,4.3-0.4,6.5-0.4
	c123.5,0,247-0.1,370.5,0c29.1,0,49.4,20.3,49.5,49.4c0.1,24.5,0,49,0,73.5c0,1.5-0.1,2.9-0.2,4.7C335.2,149.9,179.1,149.9,23,149.9
	z M321,86.3c0.1,11.7,9.7,21.4,21.3,21.3c11.7-0.1,21.3-9.7,21.3-21.4c0-11.7-9.6-21.2-21.4-21.3C330.6,65,321,74.6,321,86.3z
	 M385,86.3c0.1,11.7,9.7,21.4,21.3,21.3c11.7-0.1,21.3-9.7,21.3-21.4c0-11.7-9.6-21.2-21.4-21.3C394.6,65,385,74.6,385,86.3z"/>
<path class="st0" d="M321,86.3C321,74.6,330.6,65,342.3,65c11.7,0,21.3,9.6,21.4,21.3c0,11.6-9.6,21.3-21.3,21.4
	C330.7,107.7,321.1,98,321,86.3z"/>
<path class="st0" d="M385,86.3C385,74.6,394.6,65,406.3,65c11.7,0,21.3,9.6,21.4,21.3c0,11.6-9.6,21.3-21.3,21.4
	C394.7,107.7,385.1,98,385,86.3z"/>
</svg>
